%TF.GenerationSoftware,KiCad,Pcbnew,(5.1.9)-1*%
%TF.CreationDate,2021-05-28T12:30:45-05:00*%
%TF.ProjectId,MCD QSB,4d434420-5153-4422-9e6b-696361645f70,rev?*%
%TF.SameCoordinates,Original*%
%TF.FileFunction,Legend,Top*%
%TF.FilePolarity,Positive*%
%FSLAX46Y46*%
G04 Gerber Fmt 4.6, Leading zero omitted, Abs format (unit mm)*
G04 Created by KiCad (PCBNEW (5.1.9)-1) date 2021-05-28 12:30:45*
%MOMM*%
%LPD*%
G01*
G04 APERTURE LIST*
%ADD10C,0.150000*%
%ADD11C,0.200000*%
%ADD12C,0.100000*%
%ADD13C,0.254000*%
G04 APERTURE END LIST*
D10*
X231538946Y-116729260D02*
X231872280Y-117729260D01*
X232205613Y-116729260D01*
X233110375Y-117634022D02*
X233062756Y-117681641D01*
X232919899Y-117729260D01*
X232824660Y-117729260D01*
X232681803Y-117681641D01*
X232586565Y-117586403D01*
X232538946Y-117491165D01*
X232491327Y-117300689D01*
X232491327Y-117157832D01*
X232538946Y-116967356D01*
X232586565Y-116872118D01*
X232681803Y-116776880D01*
X232824660Y-116729260D01*
X232919899Y-116729260D01*
X233062756Y-116776880D01*
X233110375Y-116824499D01*
X234110375Y-117634022D02*
X234062756Y-117681641D01*
X233919899Y-117729260D01*
X233824660Y-117729260D01*
X233681803Y-117681641D01*
X233586565Y-117586403D01*
X233538946Y-117491165D01*
X233491327Y-117300689D01*
X233491327Y-117157832D01*
X233538946Y-116967356D01*
X233586565Y-116872118D01*
X233681803Y-116776880D01*
X233824660Y-116729260D01*
X233919899Y-116729260D01*
X234062756Y-116776880D01*
X234110375Y-116824499D01*
X231330097Y-115449100D02*
X231568192Y-116449100D01*
X231758668Y-115734815D01*
X231949144Y-116449100D01*
X232187240Y-115449100D01*
X232901525Y-115925291D02*
X232568192Y-115925291D01*
X232568192Y-116449100D02*
X232568192Y-115449100D01*
X233044382Y-115449100D01*
X233996763Y-116353862D02*
X233949144Y-116401481D01*
X233806287Y-116449100D01*
X233711049Y-116449100D01*
X233568192Y-116401481D01*
X233472954Y-116306243D01*
X233425335Y-116211005D01*
X233377716Y-116020529D01*
X233377716Y-115877672D01*
X233425335Y-115687196D01*
X233472954Y-115591958D01*
X233568192Y-115496720D01*
X233711049Y-115449100D01*
X233806287Y-115449100D01*
X233949144Y-115496720D01*
X233996763Y-115544339D01*
X234425335Y-116449100D02*
X234425335Y-115449100D01*
X234996763Y-116449100D02*
X234568192Y-115877672D01*
X234996763Y-115449100D02*
X234425335Y-116020529D01*
X232354215Y-114201320D02*
X232258977Y-114153700D01*
X232116120Y-114153700D01*
X231973262Y-114201320D01*
X231878024Y-114296558D01*
X231830405Y-114391796D01*
X231782786Y-114582272D01*
X231782786Y-114725129D01*
X231830405Y-114915605D01*
X231878024Y-115010843D01*
X231973262Y-115106081D01*
X232116120Y-115153700D01*
X232211358Y-115153700D01*
X232354215Y-115106081D01*
X232401834Y-115058462D01*
X232401834Y-114725129D01*
X232211358Y-114725129D01*
X232830405Y-115153700D02*
X232830405Y-114153700D01*
X233401834Y-115153700D01*
X233401834Y-114153700D01*
X233878024Y-115153700D02*
X233878024Y-114153700D01*
X234116120Y-114153700D01*
X234258977Y-114201320D01*
X234354215Y-114296558D01*
X234401834Y-114391796D01*
X234449453Y-114582272D01*
X234449453Y-114725129D01*
X234401834Y-114915605D01*
X234354215Y-115010843D01*
X234258977Y-115106081D01*
X234116120Y-115153700D01*
X233878024Y-115153700D01*
X231357396Y-113902121D02*
X231500253Y-113949740D01*
X231738348Y-113949740D01*
X231833586Y-113902121D01*
X231881205Y-113854502D01*
X231928824Y-113759264D01*
X231928824Y-113664026D01*
X231881205Y-113568788D01*
X231833586Y-113521169D01*
X231738348Y-113473550D01*
X231547872Y-113425931D01*
X231452634Y-113378312D01*
X231405015Y-113330693D01*
X231357396Y-113235455D01*
X231357396Y-113140217D01*
X231405015Y-113044979D01*
X231452634Y-112997360D01*
X231547872Y-112949740D01*
X231785967Y-112949740D01*
X231928824Y-112997360D01*
X232928824Y-113854502D02*
X232881205Y-113902121D01*
X232738348Y-113949740D01*
X232643110Y-113949740D01*
X232500253Y-113902121D01*
X232405015Y-113806883D01*
X232357396Y-113711645D01*
X232309777Y-113521169D01*
X232309777Y-113378312D01*
X232357396Y-113187836D01*
X232405015Y-113092598D01*
X232500253Y-112997360D01*
X232643110Y-112949740D01*
X232738348Y-112949740D01*
X232881205Y-112997360D01*
X232928824Y-113044979D01*
X233547872Y-112949740D02*
X233738348Y-112949740D01*
X233833586Y-112997360D01*
X233928824Y-113092598D01*
X233976443Y-113283074D01*
X233976443Y-113616407D01*
X233928824Y-113806883D01*
X233833586Y-113902121D01*
X233738348Y-113949740D01*
X233547872Y-113949740D01*
X233452634Y-113902121D01*
X233357396Y-113806883D01*
X233309777Y-113616407D01*
X233309777Y-113283074D01*
X233357396Y-113092598D01*
X233452634Y-112997360D01*
X233547872Y-112949740D01*
X234976443Y-113949740D02*
X234643110Y-113473550D01*
X234405015Y-113949740D02*
X234405015Y-112949740D01*
X234785967Y-112949740D01*
X234881205Y-112997360D01*
X234928824Y-113044979D01*
X234976443Y-113140217D01*
X234976443Y-113283074D01*
X234928824Y-113378312D01*
X234881205Y-113425931D01*
X234785967Y-113473550D01*
X234405015Y-113473550D01*
X231381205Y-111321481D02*
X231524062Y-111369100D01*
X231762158Y-111369100D01*
X231857396Y-111321481D01*
X231905015Y-111273862D01*
X231952634Y-111178624D01*
X231952634Y-111083386D01*
X231905015Y-110988148D01*
X231857396Y-110940529D01*
X231762158Y-110892910D01*
X231571681Y-110845291D01*
X231476443Y-110797672D01*
X231428824Y-110750053D01*
X231381205Y-110654815D01*
X231381205Y-110559577D01*
X231428824Y-110464339D01*
X231476443Y-110416720D01*
X231571681Y-110369100D01*
X231809777Y-110369100D01*
X231952634Y-110416720D01*
X232714539Y-110845291D02*
X232857396Y-110892910D01*
X232905015Y-110940529D01*
X232952634Y-111035767D01*
X232952634Y-111178624D01*
X232905015Y-111273862D01*
X232857396Y-111321481D01*
X232762158Y-111369100D01*
X232381205Y-111369100D01*
X232381205Y-110369100D01*
X232714539Y-110369100D01*
X232809777Y-110416720D01*
X232857396Y-110464339D01*
X232905015Y-110559577D01*
X232905015Y-110654815D01*
X232857396Y-110750053D01*
X232809777Y-110797672D01*
X232714539Y-110845291D01*
X232381205Y-110845291D01*
X233333586Y-111321481D02*
X233476443Y-111369100D01*
X233714539Y-111369100D01*
X233809777Y-111321481D01*
X233857396Y-111273862D01*
X233905015Y-111178624D01*
X233905015Y-111083386D01*
X233857396Y-110988148D01*
X233809777Y-110940529D01*
X233714539Y-110892910D01*
X233524062Y-110845291D01*
X233428824Y-110797672D01*
X233381205Y-110750053D01*
X233333586Y-110654815D01*
X233333586Y-110559577D01*
X233381205Y-110464339D01*
X233428824Y-110416720D01*
X233524062Y-110369100D01*
X233762158Y-110369100D01*
X233905015Y-110416720D01*
X234524062Y-110369100D02*
X234714539Y-110369100D01*
X234809777Y-110416720D01*
X234905015Y-110511958D01*
X234952634Y-110702434D01*
X234952634Y-111035767D01*
X234905015Y-111226243D01*
X234809777Y-111321481D01*
X234714539Y-111369100D01*
X234524062Y-111369100D01*
X234428824Y-111321481D01*
X234333586Y-111226243D01*
X234285967Y-111035767D01*
X234285967Y-110702434D01*
X234333586Y-110511958D01*
X234428824Y-110416720D01*
X234524062Y-110369100D01*
X231496763Y-109671811D02*
X231830097Y-109671811D01*
X231972954Y-110195620D02*
X231496763Y-110195620D01*
X231496763Y-109195620D01*
X231972954Y-109195620D01*
X232306287Y-109195620D02*
X232972954Y-110195620D01*
X232972954Y-109195620D02*
X232306287Y-110195620D01*
X233925335Y-110100382D02*
X233877716Y-110148001D01*
X233734859Y-110195620D01*
X233639620Y-110195620D01*
X233496763Y-110148001D01*
X233401525Y-110052763D01*
X233353906Y-109957525D01*
X233306287Y-109767049D01*
X233306287Y-109624192D01*
X233353906Y-109433716D01*
X233401525Y-109338478D01*
X233496763Y-109243240D01*
X233639620Y-109195620D01*
X233734859Y-109195620D01*
X233877716Y-109243240D01*
X233925335Y-109290859D01*
X234353906Y-110195620D02*
X234353906Y-109195620D01*
X234925335Y-110195620D02*
X234496763Y-109624192D01*
X234925335Y-109195620D02*
X234353906Y-109767049D01*
X231395163Y-106532940D02*
X231395163Y-105532940D01*
X231633259Y-105532940D01*
X231776116Y-105580560D01*
X231871354Y-105675798D01*
X231918973Y-105771036D01*
X231966592Y-105961512D01*
X231966592Y-106104369D01*
X231918973Y-106294845D01*
X231871354Y-106390083D01*
X231776116Y-106485321D01*
X231633259Y-106532940D01*
X231395163Y-106532940D01*
X232728497Y-106009131D02*
X232395163Y-106009131D01*
X232395163Y-106532940D02*
X232395163Y-105532940D01*
X232871354Y-105532940D01*
X233823735Y-106437702D02*
X233776116Y-106485321D01*
X233633259Y-106532940D01*
X233538020Y-106532940D01*
X233395163Y-106485321D01*
X233299925Y-106390083D01*
X233252306Y-106294845D01*
X233204687Y-106104369D01*
X233204687Y-105961512D01*
X233252306Y-105771036D01*
X233299925Y-105675798D01*
X233395163Y-105580560D01*
X233538020Y-105532940D01*
X233633259Y-105532940D01*
X233776116Y-105580560D01*
X233823735Y-105628179D01*
X234252306Y-106532940D02*
X234252306Y-105532940D01*
X234823735Y-106532940D02*
X234395163Y-105961512D01*
X234823735Y-105532940D02*
X234252306Y-106104369D01*
X232006923Y-105257860D02*
X231530733Y-105257860D01*
X231530733Y-104257860D01*
X232911685Y-105257860D02*
X232578352Y-104781670D01*
X232340257Y-105257860D02*
X232340257Y-104257860D01*
X232721209Y-104257860D01*
X232816447Y-104305480D01*
X232864066Y-104353099D01*
X232911685Y-104448337D01*
X232911685Y-104591194D01*
X232864066Y-104686432D01*
X232816447Y-104734051D01*
X232721209Y-104781670D01*
X232340257Y-104781670D01*
X233911685Y-105162622D02*
X233864066Y-105210241D01*
X233721209Y-105257860D01*
X233625971Y-105257860D01*
X233483114Y-105210241D01*
X233387876Y-105115003D01*
X233340257Y-105019765D01*
X233292638Y-104829289D01*
X233292638Y-104686432D01*
X233340257Y-104495956D01*
X233387876Y-104400718D01*
X233483114Y-104305480D01*
X233625971Y-104257860D01*
X233721209Y-104257860D01*
X233864066Y-104305480D01*
X233911685Y-104353099D01*
X234340257Y-105257860D02*
X234340257Y-104257860D01*
X234911685Y-105257860D02*
X234483114Y-104686432D01*
X234911685Y-104257860D02*
X234340257Y-104829289D01*
X231173590Y-103980881D02*
X231316447Y-104028500D01*
X231554542Y-104028500D01*
X231649780Y-103980881D01*
X231697400Y-103933262D01*
X231745019Y-103838024D01*
X231745019Y-103742786D01*
X231697400Y-103647548D01*
X231649780Y-103599929D01*
X231554542Y-103552310D01*
X231364066Y-103504691D01*
X231268828Y-103457072D01*
X231221209Y-103409453D01*
X231173590Y-103314215D01*
X231173590Y-103218977D01*
X231221209Y-103123739D01*
X231268828Y-103076120D01*
X231364066Y-103028500D01*
X231602161Y-103028500D01*
X231745019Y-103076120D01*
X232173590Y-104028500D02*
X232173590Y-103028500D01*
X232411685Y-103028500D01*
X232554542Y-103076120D01*
X232649780Y-103171358D01*
X232697400Y-103266596D01*
X232745019Y-103457072D01*
X232745019Y-103599929D01*
X232697400Y-103790405D01*
X232649780Y-103885643D01*
X232554542Y-103980881D01*
X232411685Y-104028500D01*
X232173590Y-104028500D01*
X233125971Y-103742786D02*
X233602161Y-103742786D01*
X233030733Y-104028500D02*
X233364066Y-103028500D01*
X233697400Y-104028500D01*
X233887876Y-103028500D02*
X234459304Y-103028500D01*
X234173590Y-104028500D02*
X234173590Y-103028500D01*
X234745019Y-103742786D02*
X235221209Y-103742786D01*
X234649780Y-104028500D02*
X234983114Y-103028500D01*
X235316447Y-104028500D01*
X231985986Y-102280411D02*
X232128843Y-102328030D01*
X232176462Y-102375649D01*
X232224081Y-102470887D01*
X232224081Y-102613744D01*
X232176462Y-102708982D01*
X232128843Y-102756601D01*
X232033605Y-102804220D01*
X231652653Y-102804220D01*
X231652653Y-101804220D01*
X231985986Y-101804220D01*
X232081224Y-101851840D01*
X232128843Y-101899459D01*
X232176462Y-101994697D01*
X232176462Y-102089935D01*
X232128843Y-102185173D01*
X232081224Y-102232792D01*
X231985986Y-102280411D01*
X231652653Y-102280411D01*
X233224081Y-102708982D02*
X233176462Y-102756601D01*
X233033605Y-102804220D01*
X232938367Y-102804220D01*
X232795510Y-102756601D01*
X232700272Y-102661363D01*
X232652653Y-102566125D01*
X232605034Y-102375649D01*
X232605034Y-102232792D01*
X232652653Y-102042316D01*
X232700272Y-101947078D01*
X232795510Y-101851840D01*
X232938367Y-101804220D01*
X233033605Y-101804220D01*
X233176462Y-101851840D01*
X233224081Y-101899459D01*
X234128843Y-102804220D02*
X233652653Y-102804220D01*
X233652653Y-101804220D01*
X234462177Y-102804220D02*
X234462177Y-101804220D01*
X235033605Y-102804220D02*
X234605034Y-102232792D01*
X235033605Y-101804220D02*
X234462177Y-102375649D01*
X232083123Y-101378022D02*
X232035504Y-101425641D01*
X231892647Y-101473260D01*
X231797409Y-101473260D01*
X231654552Y-101425641D01*
X231559314Y-101330403D01*
X231511695Y-101235165D01*
X231464076Y-101044689D01*
X231464076Y-100901832D01*
X231511695Y-100711356D01*
X231559314Y-100616118D01*
X231654552Y-100520880D01*
X231797409Y-100473260D01*
X231892647Y-100473260D01*
X232035504Y-100520880D01*
X232083123Y-100568499D01*
X232464076Y-100568499D02*
X232511695Y-100520880D01*
X232606933Y-100473260D01*
X232845028Y-100473260D01*
X232940266Y-100520880D01*
X232987885Y-100568499D01*
X233035504Y-100663737D01*
X233035504Y-100758975D01*
X232987885Y-100901832D01*
X232416457Y-101473260D01*
X233035504Y-101473260D01*
X233464076Y-101473260D02*
X233464076Y-100473260D01*
X233845028Y-100473260D01*
X233940266Y-100520880D01*
X233987885Y-100568499D01*
X234035504Y-100663737D01*
X234035504Y-100806594D01*
X233987885Y-100901832D01*
X233940266Y-100949451D01*
X233845028Y-100997070D01*
X233464076Y-100997070D01*
X234654552Y-100473260D02*
X234845028Y-100473260D01*
X234940266Y-100520880D01*
X235035504Y-100616118D01*
X235083123Y-100806594D01*
X235083123Y-101139927D01*
X235035504Y-101330403D01*
X234940266Y-101425641D01*
X234845028Y-101473260D01*
X234654552Y-101473260D01*
X234559314Y-101425641D01*
X234464076Y-101330403D01*
X234416457Y-101139927D01*
X234416457Y-100806594D01*
X234464076Y-100616118D01*
X234559314Y-100520880D01*
X234654552Y-100473260D01*
X232259024Y-100269300D02*
X232259024Y-99269300D01*
X232497120Y-99269300D01*
X232639977Y-99316920D01*
X232735215Y-99412158D01*
X232782834Y-99507396D01*
X232830453Y-99697872D01*
X232830453Y-99840729D01*
X232782834Y-100031205D01*
X232735215Y-100126443D01*
X232639977Y-100221681D01*
X232497120Y-100269300D01*
X232259024Y-100269300D01*
X233592358Y-99745491D02*
X233735215Y-99793110D01*
X233782834Y-99840729D01*
X233830453Y-99935967D01*
X233830453Y-100078824D01*
X233782834Y-100174062D01*
X233735215Y-100221681D01*
X233639977Y-100269300D01*
X233259024Y-100269300D01*
X233259024Y-99269300D01*
X233592358Y-99269300D01*
X233687596Y-99316920D01*
X233735215Y-99364539D01*
X233782834Y-99459777D01*
X233782834Y-99555015D01*
X233735215Y-99650253D01*
X233687596Y-99697872D01*
X233592358Y-99745491D01*
X233259024Y-99745491D01*
X234163786Y-99269300D02*
X234782834Y-99269300D01*
X234449500Y-99650253D01*
X234592358Y-99650253D01*
X234687596Y-99697872D01*
X234735215Y-99745491D01*
X234782834Y-99840729D01*
X234782834Y-100078824D01*
X234735215Y-100174062D01*
X234687596Y-100221681D01*
X234592358Y-100269300D01*
X234306643Y-100269300D01*
X234211405Y-100221681D01*
X234163786Y-100174062D01*
X232284424Y-98943420D02*
X232284424Y-97943420D01*
X232522520Y-97943420D01*
X232665377Y-97991040D01*
X232760615Y-98086278D01*
X232808234Y-98181516D01*
X232855853Y-98371992D01*
X232855853Y-98514849D01*
X232808234Y-98705325D01*
X232760615Y-98800563D01*
X232665377Y-98895801D01*
X232522520Y-98943420D01*
X232284424Y-98943420D01*
X233617758Y-98419611D02*
X233760615Y-98467230D01*
X233808234Y-98514849D01*
X233855853Y-98610087D01*
X233855853Y-98752944D01*
X233808234Y-98848182D01*
X233760615Y-98895801D01*
X233665377Y-98943420D01*
X233284424Y-98943420D01*
X233284424Y-97943420D01*
X233617758Y-97943420D01*
X233712996Y-97991040D01*
X233760615Y-98038659D01*
X233808234Y-98133897D01*
X233808234Y-98229135D01*
X233760615Y-98324373D01*
X233712996Y-98371992D01*
X233617758Y-98419611D01*
X233284424Y-98419611D01*
X234236805Y-98038659D02*
X234284424Y-97991040D01*
X234379662Y-97943420D01*
X234617758Y-97943420D01*
X234712996Y-97991040D01*
X234760615Y-98038659D01*
X234808234Y-98133897D01*
X234808234Y-98229135D01*
X234760615Y-98371992D01*
X234189186Y-98943420D01*
X234808234Y-98943420D01*
X232411424Y-97698820D02*
X232411424Y-96698820D01*
X232649520Y-96698820D01*
X232792377Y-96746440D01*
X232887615Y-96841678D01*
X232935234Y-96936916D01*
X232982853Y-97127392D01*
X232982853Y-97270249D01*
X232935234Y-97460725D01*
X232887615Y-97555963D01*
X232792377Y-97651201D01*
X232649520Y-97698820D01*
X232411424Y-97698820D01*
X233744758Y-97175011D02*
X233887615Y-97222630D01*
X233935234Y-97270249D01*
X233982853Y-97365487D01*
X233982853Y-97508344D01*
X233935234Y-97603582D01*
X233887615Y-97651201D01*
X233792377Y-97698820D01*
X233411424Y-97698820D01*
X233411424Y-96698820D01*
X233744758Y-96698820D01*
X233839996Y-96746440D01*
X233887615Y-96794059D01*
X233935234Y-96889297D01*
X233935234Y-96984535D01*
X233887615Y-97079773D01*
X233839996Y-97127392D01*
X233744758Y-97175011D01*
X233411424Y-97175011D01*
X234935234Y-97698820D02*
X234363805Y-97698820D01*
X234649520Y-97698820D02*
X234649520Y-96698820D01*
X234554281Y-96841678D01*
X234459043Y-96936916D01*
X234363805Y-96984535D01*
X232426664Y-96454220D02*
X232426664Y-95454220D01*
X232664760Y-95454220D01*
X232807617Y-95501840D01*
X232902855Y-95597078D01*
X232950474Y-95692316D01*
X232998093Y-95882792D01*
X232998093Y-96025649D01*
X232950474Y-96216125D01*
X232902855Y-96311363D01*
X232807617Y-96406601D01*
X232664760Y-96454220D01*
X232426664Y-96454220D01*
X233759998Y-95930411D02*
X233902855Y-95978030D01*
X233950474Y-96025649D01*
X233998093Y-96120887D01*
X233998093Y-96263744D01*
X233950474Y-96358982D01*
X233902855Y-96406601D01*
X233807617Y-96454220D01*
X233426664Y-96454220D01*
X233426664Y-95454220D01*
X233759998Y-95454220D01*
X233855236Y-95501840D01*
X233902855Y-95549459D01*
X233950474Y-95644697D01*
X233950474Y-95739935D01*
X233902855Y-95835173D01*
X233855236Y-95882792D01*
X233759998Y-95930411D01*
X233426664Y-95930411D01*
X234617140Y-95454220D02*
X234712379Y-95454220D01*
X234807617Y-95501840D01*
X234855236Y-95549459D01*
X234902855Y-95644697D01*
X234950474Y-95835173D01*
X234950474Y-96073268D01*
X234902855Y-96263744D01*
X234855236Y-96358982D01*
X234807617Y-96406601D01*
X234712379Y-96454220D01*
X234617140Y-96454220D01*
X234521902Y-96406601D01*
X234474283Y-96358982D01*
X234426664Y-96263744D01*
X234379045Y-96073268D01*
X234379045Y-95835173D01*
X234426664Y-95644697D01*
X234474283Y-95549459D01*
X234521902Y-95501840D01*
X234617140Y-95454220D01*
X231879045Y-95235020D02*
X231879045Y-94235020D01*
X231879045Y-94711211D02*
X232450474Y-94711211D01*
X232450474Y-95235020D02*
X232450474Y-94235020D01*
X232926664Y-95235020D02*
X232926664Y-94235020D01*
X233164760Y-94235020D01*
X233307617Y-94282640D01*
X233402855Y-94377878D01*
X233450474Y-94473116D01*
X233498093Y-94663592D01*
X233498093Y-94806449D01*
X233450474Y-94996925D01*
X233402855Y-95092163D01*
X233307617Y-95187401D01*
X233164760Y-95235020D01*
X232926664Y-95235020D01*
X234498093Y-95139782D02*
X234450474Y-95187401D01*
X234307617Y-95235020D01*
X234212379Y-95235020D01*
X234069521Y-95187401D01*
X233974283Y-95092163D01*
X233926664Y-94996925D01*
X233879045Y-94806449D01*
X233879045Y-94663592D01*
X233926664Y-94473116D01*
X233974283Y-94377878D01*
X234069521Y-94282640D01*
X234212379Y-94235020D01*
X234307617Y-94235020D01*
X234450474Y-94282640D01*
X234498093Y-94330259D01*
X234926664Y-95235020D02*
X234926664Y-94235020D01*
X235498093Y-95235020D02*
X235069521Y-94663592D01*
X235498093Y-94235020D02*
X234926664Y-94806449D01*
X232093022Y-93497091D02*
X232426356Y-93497091D01*
X232569213Y-94020900D02*
X232093022Y-94020900D01*
X232093022Y-93020900D01*
X232569213Y-93020900D01*
X233569213Y-94020900D02*
X233235880Y-93544710D01*
X232997784Y-94020900D02*
X232997784Y-93020900D01*
X233378737Y-93020900D01*
X233473975Y-93068520D01*
X233521594Y-93116139D01*
X233569213Y-93211377D01*
X233569213Y-93354234D01*
X233521594Y-93449472D01*
X233473975Y-93497091D01*
X233378737Y-93544710D01*
X232997784Y-93544710D01*
X233997784Y-93497091D02*
X234331118Y-93497091D01*
X234473975Y-94020900D02*
X233997784Y-94020900D01*
X233997784Y-93020900D01*
X234473975Y-93020900D01*
X234854927Y-93973281D02*
X234997784Y-94020900D01*
X235235880Y-94020900D01*
X235331118Y-93973281D01*
X235378737Y-93925662D01*
X235426356Y-93830424D01*
X235426356Y-93735186D01*
X235378737Y-93639948D01*
X235331118Y-93592329D01*
X235235880Y-93544710D01*
X235045403Y-93497091D01*
X234950165Y-93449472D01*
X234902546Y-93401853D01*
X234854927Y-93306615D01*
X234854927Y-93211377D01*
X234902546Y-93116139D01*
X234950165Y-93068520D01*
X235045403Y-93020900D01*
X235283499Y-93020900D01*
X235426356Y-93068520D01*
X232869550Y-92679780D02*
X232869550Y-91679780D01*
X233917169Y-92679780D02*
X233583836Y-92203590D01*
X233345740Y-92679780D02*
X233345740Y-91679780D01*
X233726693Y-91679780D01*
X233821931Y-91727400D01*
X233869550Y-91775019D01*
X233917169Y-91870257D01*
X233917169Y-92013114D01*
X233869550Y-92108352D01*
X233821931Y-92155971D01*
X233726693Y-92203590D01*
X233345740Y-92203590D01*
X235012407Y-92775019D02*
X234917169Y-92727400D01*
X234821931Y-92632161D01*
X234679074Y-92489304D01*
X234583836Y-92441685D01*
X234488598Y-92441685D01*
X234536217Y-92679780D02*
X234440979Y-92632161D01*
X234345740Y-92536923D01*
X234298121Y-92346447D01*
X234298121Y-92013114D01*
X234345740Y-91822638D01*
X234440979Y-91727400D01*
X234536217Y-91679780D01*
X234726693Y-91679780D01*
X234821931Y-91727400D01*
X234917169Y-91822638D01*
X234964788Y-92013114D01*
X234964788Y-92346447D01*
X234917169Y-92536923D01*
X234821931Y-92632161D01*
X234726693Y-92679780D01*
X234536217Y-92679780D01*
X232466379Y-91465660D02*
X232466379Y-90465660D01*
X232704474Y-90465660D01*
X232847331Y-90513280D01*
X232942569Y-90608518D01*
X232990188Y-90703756D01*
X233037807Y-90894232D01*
X233037807Y-91037089D01*
X232990188Y-91227565D01*
X232942569Y-91322803D01*
X232847331Y-91418041D01*
X232704474Y-91465660D01*
X232466379Y-91465660D01*
X233466379Y-91084708D02*
X234228283Y-91084708D01*
X234704474Y-91465660D02*
X234704474Y-90465660D01*
X235037807Y-91179946D01*
X235371140Y-90465660D01*
X235371140Y-91465660D01*
X232885763Y-90064862D02*
X232838144Y-90112481D01*
X232695287Y-90160100D01*
X232600049Y-90160100D01*
X232457192Y-90112481D01*
X232361954Y-90017243D01*
X232314335Y-89922005D01*
X232266716Y-89731529D01*
X232266716Y-89588672D01*
X232314335Y-89398196D01*
X232361954Y-89302958D01*
X232457192Y-89207720D01*
X232600049Y-89160100D01*
X232695287Y-89160100D01*
X232838144Y-89207720D01*
X232885763Y-89255339D01*
X233314335Y-90160100D02*
X233314335Y-89160100D01*
X233552430Y-89160100D01*
X233695287Y-89207720D01*
X233790525Y-89302958D01*
X233838144Y-89398196D01*
X233885763Y-89588672D01*
X233885763Y-89731529D01*
X233838144Y-89922005D01*
X233790525Y-90017243D01*
X233695287Y-90112481D01*
X233552430Y-90160100D01*
X233314335Y-90160100D01*
X234885763Y-90064862D02*
X234838144Y-90112481D01*
X234695287Y-90160100D01*
X234600049Y-90160100D01*
X234457192Y-90112481D01*
X234361954Y-90017243D01*
X234314335Y-89922005D01*
X234266716Y-89731529D01*
X234266716Y-89588672D01*
X234314335Y-89398196D01*
X234361954Y-89302958D01*
X234457192Y-89207720D01*
X234600049Y-89160100D01*
X234695287Y-89160100D01*
X234838144Y-89207720D01*
X234885763Y-89255339D01*
X235314335Y-90160100D02*
X235314335Y-89160100D01*
X235885763Y-90160100D02*
X235457192Y-89588672D01*
X235885763Y-89160100D02*
X235314335Y-89731529D01*
X60724681Y-112556085D02*
X60772300Y-112413228D01*
X60772300Y-112175133D01*
X60724681Y-112079895D01*
X60677062Y-112032276D01*
X60581824Y-111984657D01*
X60486586Y-111984657D01*
X60391348Y-112032276D01*
X60343729Y-112079895D01*
X60296110Y-112175133D01*
X60248491Y-112365609D01*
X60200872Y-112460847D01*
X60153253Y-112508466D01*
X60058015Y-112556085D01*
X59962777Y-112556085D01*
X59867539Y-112508466D01*
X59819920Y-112460847D01*
X59772300Y-112365609D01*
X59772300Y-112127514D01*
X59819920Y-111984657D01*
X59772300Y-111365609D02*
X59772300Y-111175133D01*
X59819920Y-111079895D01*
X59915158Y-110984657D01*
X60105634Y-110937038D01*
X60438967Y-110937038D01*
X60629443Y-110984657D01*
X60724681Y-111079895D01*
X60772300Y-111175133D01*
X60772300Y-111365609D01*
X60724681Y-111460847D01*
X60629443Y-111556085D01*
X60438967Y-111603704D01*
X60105634Y-111603704D01*
X59915158Y-111556085D01*
X59819920Y-111460847D01*
X59772300Y-111365609D01*
X60772300Y-110032276D02*
X60772300Y-110508466D01*
X59772300Y-110508466D01*
X60772300Y-109698942D02*
X59772300Y-109698942D01*
X59772300Y-109460847D01*
X59819920Y-109317990D01*
X59915158Y-109222752D01*
X60010396Y-109175133D01*
X60200872Y-109127514D01*
X60343729Y-109127514D01*
X60534205Y-109175133D01*
X60629443Y-109222752D01*
X60724681Y-109317990D01*
X60772300Y-109460847D01*
X60772300Y-109698942D01*
X60248491Y-108698942D02*
X60248491Y-108365609D01*
X60772300Y-108222752D02*
X60772300Y-108698942D01*
X59772300Y-108698942D01*
X59772300Y-108222752D01*
X60772300Y-107222752D02*
X60296110Y-107556085D01*
X60772300Y-107794180D02*
X59772300Y-107794180D01*
X59772300Y-107413228D01*
X59819920Y-107317990D01*
X59867539Y-107270371D01*
X59962777Y-107222752D01*
X60105634Y-107222752D01*
X60200872Y-107270371D01*
X60248491Y-107317990D01*
X60296110Y-107413228D01*
X60296110Y-107794180D01*
X59772300Y-106175133D02*
X59772300Y-105603704D01*
X60772300Y-105889419D02*
X59772300Y-105889419D01*
X60772300Y-105270371D02*
X59772300Y-105270371D01*
X60248491Y-105270371D02*
X60248491Y-104698942D01*
X60772300Y-104698942D02*
X59772300Y-104698942D01*
X60772300Y-104222752D02*
X59772300Y-104222752D01*
X60724681Y-103794180D02*
X60772300Y-103651323D01*
X60772300Y-103413228D01*
X60724681Y-103317990D01*
X60677062Y-103270371D01*
X60581824Y-103222752D01*
X60486586Y-103222752D01*
X60391348Y-103270371D01*
X60343729Y-103317990D01*
X60296110Y-103413228D01*
X60248491Y-103603704D01*
X60200872Y-103698942D01*
X60153253Y-103746561D01*
X60058015Y-103794180D01*
X59962777Y-103794180D01*
X59867539Y-103746561D01*
X59819920Y-103698942D01*
X59772300Y-103603704D01*
X59772300Y-103365609D01*
X59819920Y-103222752D01*
X60724681Y-102079895D02*
X60772300Y-101937038D01*
X60772300Y-101698942D01*
X60724681Y-101603704D01*
X60677062Y-101556085D01*
X60581824Y-101508466D01*
X60486586Y-101508466D01*
X60391348Y-101556085D01*
X60343729Y-101603704D01*
X60296110Y-101698942D01*
X60248491Y-101889419D01*
X60200872Y-101984657D01*
X60153253Y-102032276D01*
X60058015Y-102079895D01*
X59962777Y-102079895D01*
X59867539Y-102032276D01*
X59819920Y-101984657D01*
X59772300Y-101889419D01*
X59772300Y-101651323D01*
X59819920Y-101508466D01*
X60772300Y-101079895D02*
X59772300Y-101079895D01*
X60772300Y-100603704D02*
X59772300Y-100603704D01*
X59772300Y-100365609D01*
X59819920Y-100222752D01*
X59915158Y-100127514D01*
X60010396Y-100079895D01*
X60200872Y-100032276D01*
X60343729Y-100032276D01*
X60534205Y-100079895D01*
X60629443Y-100127514D01*
X60724681Y-100222752D01*
X60772300Y-100365609D01*
X60772300Y-100603704D01*
X60248491Y-99603704D02*
X60248491Y-99270371D01*
X60772300Y-99127514D02*
X60772300Y-99603704D01*
X59772300Y-99603704D01*
X59772300Y-99127514D01*
D11*
%TO.C,J1*%
X55632000Y-89608000D02*
G75*
G02*
X55632000Y-89408000I0J100000D01*
G01*
X55632000Y-89408000D02*
G75*
G02*
X55632000Y-89608000I0J-100000D01*
G01*
X55632000Y-89608000D02*
X55632000Y-89608000D01*
X55632000Y-89408000D02*
X55632000Y-89408000D01*
D12*
X49982000Y-122908000D02*
X49982000Y-119358000D01*
X54982000Y-122908000D02*
X49982000Y-122908000D01*
X54982000Y-85908000D02*
X54982000Y-122908000D01*
X49982000Y-85908000D02*
X54982000Y-85908000D01*
X49982000Y-89408000D02*
X49982000Y-85908000D01*
D13*
X52036523Y-104831333D02*
X52943666Y-104831333D01*
X53125095Y-104891809D01*
X53246047Y-105012761D01*
X53306523Y-105194190D01*
X53306523Y-105315142D01*
X53306523Y-103561333D02*
X53306523Y-104287047D01*
X53306523Y-103924190D02*
X52036523Y-103924190D01*
X52217952Y-104045142D01*
X52338904Y-104166095D01*
X52399380Y-104287047D01*
%TD*%
M02*
