%FSLAX45Y45*%
G04 Gerber Fmt 4.5, Leading zero omitted, Abs format (unit mm)*
G04 Created by KiCad (PCBNEW (5.1.9)-1) date 2021-05-28 12:30:48*
%MOMM*%
%LPD*%
G01*
G04 APERTURE LIST*
%TA.AperFunction,Profile*%
%ADD10C,0.050000*%
%TD*%
%ADD11C,0.200000*%
%ADD12C,0.300000*%
G04 APERTURE END LIST*
D10*
X5486400Y-12039600D02*
X5486400Y-12039600D01*
X5588000Y-12039600D02*
X5486400Y-12039600D01*
X5486400Y-8839200D02*
X5486400Y-8890000D01*
X24130000Y-8890000D02*
X5486400Y-8890000D01*
X24130000Y-8890000D02*
X24130000Y-12039600D01*
X5486400Y-8839200D02*
X5486400Y-8839200D01*
X4978400Y-8839200D02*
X5486400Y-8839200D01*
X4978400Y-12039600D02*
X4978400Y-8839200D01*
X5486400Y-12039600D02*
X4978400Y-12039600D01*
X24130000Y-12039600D02*
X5588000Y-12039600D01*
D11*
D12*
X5262328Y-12507814D02*
X5262328Y-12207814D01*
X5333757Y-12207814D01*
X5376614Y-12222100D01*
X5405186Y-12250671D01*
X5419471Y-12279243D01*
X5433757Y-12336386D01*
X5433757Y-12379243D01*
X5419471Y-12436386D01*
X5405186Y-12464957D01*
X5376614Y-12493529D01*
X5333757Y-12507814D01*
X5262328Y-12507814D01*
X5562328Y-12507814D02*
X5562328Y-12307814D01*
X5562328Y-12364957D02*
X5576614Y-12336386D01*
X5590900Y-12322100D01*
X5619471Y-12307814D01*
X5648043Y-12307814D01*
X5748043Y-12507814D02*
X5748043Y-12307814D01*
X5748043Y-12207814D02*
X5733757Y-12222100D01*
X5748043Y-12236386D01*
X5762328Y-12222100D01*
X5748043Y-12207814D01*
X5748043Y-12236386D01*
X5933757Y-12507814D02*
X5905186Y-12493529D01*
X5890900Y-12464957D01*
X5890900Y-12207814D01*
X6090900Y-12507814D02*
X6062328Y-12493529D01*
X6048043Y-12464957D01*
X6048043Y-12207814D01*
X6433757Y-12507814D02*
X6433757Y-12207814D01*
X6533757Y-12422100D01*
X6633757Y-12207814D01*
X6633757Y-12507814D01*
X6905186Y-12507814D02*
X6905186Y-12350671D01*
X6890900Y-12322100D01*
X6862328Y-12307814D01*
X6805186Y-12307814D01*
X6776614Y-12322100D01*
X6905186Y-12493529D02*
X6876614Y-12507814D01*
X6805186Y-12507814D01*
X6776614Y-12493529D01*
X6762328Y-12464957D01*
X6762328Y-12436386D01*
X6776614Y-12407814D01*
X6805186Y-12393529D01*
X6876614Y-12393529D01*
X6905186Y-12379243D01*
X7048043Y-12307814D02*
X7048043Y-12607814D01*
X7048043Y-12322100D02*
X7076614Y-12307814D01*
X7133757Y-12307814D01*
X7162328Y-12322100D01*
X7176614Y-12336386D01*
X7190900Y-12364957D01*
X7190900Y-12450671D01*
X7176614Y-12479243D01*
X7162328Y-12493529D01*
X7133757Y-12507814D01*
X7076614Y-12507814D01*
X7048043Y-12493529D01*
X7319471Y-12479243D02*
X7333757Y-12493529D01*
X7319471Y-12507814D01*
X7305186Y-12493529D01*
X7319471Y-12479243D01*
X7319471Y-12507814D01*
X7319471Y-12322100D02*
X7333757Y-12336386D01*
X7319471Y-12350671D01*
X7305186Y-12336386D01*
X7319471Y-12322100D01*
X7319471Y-12350671D01*
M02*
