%FSLAX45Y45*%
G04 Gerber Fmt 4.5, Leading zero omitted, Abs format (unit mm)*
G04 Created by KiCad (PCBNEW (5.1.9)-1) date 2021-05-28 12:30:48*
%MOMM*%
%LPD*%
G01*
G04 APERTURE LIST*
%TA.AperFunction,Profile*%
%ADD10C,0.050000*%
%TD*%
%ADD11C,0.200000*%
%ADD12C,0.300000*%
G04 APERTURE END LIST*
D10*
X5486400Y-12039600D02*
X5486400Y-12039600D01*
X5588000Y-12039600D02*
X5486400Y-12039600D01*
X5486400Y-8839200D02*
X5486400Y-8890000D01*
X24130000Y-8890000D02*
X5486400Y-8890000D01*
X24130000Y-8890000D02*
X24130000Y-12039600D01*
X5486400Y-8839200D02*
X5486400Y-8839200D01*
X4978400Y-8839200D02*
X5486400Y-8839200D01*
X4978400Y-12039600D02*
X4978400Y-8839200D01*
X5486400Y-12039600D02*
X4978400Y-12039600D01*
X24130000Y-12039600D02*
X5588000Y-12039600D01*
D11*
X5665280Y-11444800D02*
X5705280Y-11484800D01*
X5705280Y-11444800D02*
X5665280Y-11484800D01*
X6168200Y-11444800D02*
X6208200Y-11484800D01*
X6208200Y-11444800D02*
X6168200Y-11484800D01*
X6683820Y-11444800D02*
X6723820Y-11484800D01*
X6723820Y-11444800D02*
X6683820Y-11484800D01*
X7225985Y-11446195D02*
X7265985Y-11486195D01*
X7265985Y-11446195D02*
X7225985Y-11486195D01*
X7690930Y-11444800D02*
X7730930Y-11484800D01*
X7730930Y-11444800D02*
X7690930Y-11484800D01*
X8254050Y-11440480D02*
X8294050Y-11480480D01*
X8294050Y-11440480D02*
X8254050Y-11480480D01*
X8776020Y-11448100D02*
X8816020Y-11488100D01*
X8816020Y-11448100D02*
X8776020Y-11488100D01*
X9383840Y-11444800D02*
X9423840Y-11484800D01*
X9423840Y-11444800D02*
X9383840Y-11484800D01*
X9889175Y-11439845D02*
X9929175Y-11479845D01*
X9929175Y-11439845D02*
X9889175Y-11479845D01*
X10372410Y-11444290D02*
X10412410Y-11484290D01*
X10412410Y-11444290D02*
X10372410Y-11484290D01*
X10915335Y-11444925D02*
X10955335Y-11484925D01*
X10955335Y-11444925D02*
X10915335Y-11484925D01*
X11487470Y-11444290D02*
X11527470Y-11484290D01*
X11527470Y-11444290D02*
X11487470Y-11484290D01*
X11961180Y-11443020D02*
X12001180Y-11483020D01*
X12001180Y-11443020D02*
X11961180Y-11483020D01*
X12448225Y-11446195D02*
X12488225Y-11486195D01*
X12488225Y-11446195D02*
X12448225Y-11486195D01*
X12885740Y-11449370D02*
X12925740Y-11489370D01*
X12925740Y-11449370D02*
X12885740Y-11489370D01*
X13337860Y-11454450D02*
X13377860Y-11494450D01*
X13377860Y-11454450D02*
X13337860Y-11494450D01*
X13850940Y-11440480D02*
X13890940Y-11480480D01*
X13890940Y-11440480D02*
X13850940Y-11480480D01*
X14242735Y-11438575D02*
X14282735Y-11478575D01*
X14282735Y-11438575D02*
X14242735Y-11478575D01*
X14732320Y-11440480D02*
X14772320Y-11480480D01*
X14772320Y-11440480D02*
X14732320Y-11480480D01*
X15223175Y-11438575D02*
X15263175Y-11478575D01*
X15263175Y-11438575D02*
X15223175Y-11478575D01*
X15774990Y-11444290D02*
X15814990Y-11484290D01*
X15814990Y-11444290D02*
X15774990Y-11484290D01*
X16225205Y-11443655D02*
X16265205Y-11483655D01*
X16265205Y-11443655D02*
X16225205Y-11483655D01*
X16761145Y-11439845D02*
X16801145Y-11479845D01*
X16801145Y-11439845D02*
X16761145Y-11479845D01*
X17209455Y-11441115D02*
X17249455Y-11481115D01*
X17249455Y-11441115D02*
X17209455Y-11481115D01*
X17592360Y-11444290D02*
X17632360Y-11484290D01*
X17632360Y-11444290D02*
X17592360Y-11484290D01*
X18087660Y-11444290D02*
X18127660Y-11484290D01*
X18127660Y-11444290D02*
X18087660Y-11484290D01*
X18522000Y-11444290D02*
X18562000Y-11484290D01*
X18562000Y-11444290D02*
X18522000Y-11484290D01*
X18991900Y-11444290D02*
X19031900Y-11484290D01*
X19031900Y-11444290D02*
X18991900Y-11484290D01*
X19430050Y-11444290D02*
X19470050Y-11484290D01*
X19470050Y-11444290D02*
X19430050Y-11484290D01*
X19836450Y-11444290D02*
X19876450Y-11484290D01*
X19876450Y-11444290D02*
X19836450Y-11484290D01*
X20236500Y-11444290D02*
X20276500Y-11484290D01*
X20276500Y-11444290D02*
X20236500Y-11484290D01*
X20628930Y-11444290D02*
X20668930Y-11484290D01*
X20668930Y-11444290D02*
X20628930Y-11484290D01*
X20987070Y-11444290D02*
X21027070Y-11484290D01*
X21027070Y-11444290D02*
X20987070Y-11484290D01*
X21370610Y-11444290D02*
X21410610Y-11484290D01*
X21410610Y-11444290D02*
X21370610Y-11484290D01*
X21783360Y-11444290D02*
X21823360Y-11484290D01*
X21823360Y-11444290D02*
X21783360Y-11484290D01*
X22173250Y-11444290D02*
X22213250Y-11484290D01*
X22213250Y-11444290D02*
X22173250Y-11484290D01*
X22596160Y-11444290D02*
X22636160Y-11484290D01*
X22636160Y-11444290D02*
X22596160Y-11484290D01*
X23012210Y-11444800D02*
X23052210Y-11484800D01*
X23052210Y-11444800D02*
X23012210Y-11484800D01*
X5133200Y-9065800D02*
G75*
G03*
X5133200Y-9065800I-50000J0D01*
G01*
X5063200Y-9105800D02*
X5103200Y-9105800D01*
X5063200Y-9025800D02*
X5103200Y-9025800D01*
X5103200Y-9105800D02*
G75*
G03*
X5103200Y-9025800I0J40000D01*
G01*
X5063200Y-9025800D02*
G75*
G03*
X5063200Y-9105800I0J-40000D01*
G01*
X5133200Y-9315800D02*
G75*
G03*
X5133200Y-9315800I-50000J0D01*
G01*
X5063200Y-9355800D02*
X5103200Y-9355800D01*
X5063200Y-9275800D02*
X5103200Y-9275800D01*
X5103200Y-9355800D02*
G75*
G03*
X5103200Y-9275800I0J40000D01*
G01*
X5063200Y-9275800D02*
G75*
G03*
X5063200Y-9355800I0J-40000D01*
G01*
X5133200Y-9565800D02*
G75*
G03*
X5133200Y-9565800I-50000J0D01*
G01*
X5063200Y-9605800D02*
X5103200Y-9605800D01*
X5063200Y-9525800D02*
X5103200Y-9525800D01*
X5103200Y-9605800D02*
G75*
G03*
X5103200Y-9525800I0J40000D01*
G01*
X5063200Y-9525800D02*
G75*
G03*
X5063200Y-9605800I0J-40000D01*
G01*
X5133200Y-9815800D02*
G75*
G03*
X5133200Y-9815800I-50000J0D01*
G01*
X5063200Y-9855800D02*
X5103200Y-9855800D01*
X5063200Y-9775800D02*
X5103200Y-9775800D01*
X5103200Y-9855800D02*
G75*
G03*
X5103200Y-9775800I0J40000D01*
G01*
X5063200Y-9775800D02*
G75*
G03*
X5063200Y-9855800I0J-40000D01*
G01*
X5133200Y-10065800D02*
G75*
G03*
X5133200Y-10065800I-50000J0D01*
G01*
X5063200Y-10105800D02*
X5103200Y-10105800D01*
X5063200Y-10025800D02*
X5103200Y-10025800D01*
X5103200Y-10105800D02*
G75*
G03*
X5103200Y-10025800I0J40000D01*
G01*
X5063200Y-10025800D02*
G75*
G03*
X5063200Y-10105800I0J-40000D01*
G01*
X5133200Y-10315800D02*
G75*
G03*
X5133200Y-10315800I-50000J0D01*
G01*
X5063200Y-10355800D02*
X5103200Y-10355800D01*
X5063200Y-10275800D02*
X5103200Y-10275800D01*
X5103200Y-10355800D02*
G75*
G03*
X5103200Y-10275800I0J40000D01*
G01*
X5063200Y-10275800D02*
G75*
G03*
X5063200Y-10355800I0J-40000D01*
G01*
X5133200Y-10565800D02*
G75*
G03*
X5133200Y-10565800I-50000J0D01*
G01*
X5063200Y-10605800D02*
X5103200Y-10605800D01*
X5063200Y-10525800D02*
X5103200Y-10525800D01*
X5103200Y-10605800D02*
G75*
G03*
X5103200Y-10525800I0J40000D01*
G01*
X5063200Y-10525800D02*
G75*
G03*
X5063200Y-10605800I0J-40000D01*
G01*
X5133200Y-10815800D02*
G75*
G03*
X5133200Y-10815800I-50000J0D01*
G01*
X5063200Y-10855800D02*
X5103200Y-10855800D01*
X5063200Y-10775800D02*
X5103200Y-10775800D01*
X5103200Y-10855800D02*
G75*
G03*
X5103200Y-10775800I0J40000D01*
G01*
X5063200Y-10775800D02*
G75*
G03*
X5063200Y-10855800I0J-40000D01*
G01*
X5133200Y-11065800D02*
G75*
G03*
X5133200Y-11065800I-50000J0D01*
G01*
X5063200Y-11105800D02*
X5103200Y-11105800D01*
X5063200Y-11025800D02*
X5103200Y-11025800D01*
X5103200Y-11105800D02*
G75*
G03*
X5103200Y-11025800I0J40000D01*
G01*
X5063200Y-11025800D02*
G75*
G03*
X5063200Y-11105800I0J-40000D01*
G01*
X5133200Y-11315800D02*
G75*
G03*
X5133200Y-11315800I-50000J0D01*
G01*
X5063200Y-11355800D02*
X5103200Y-11355800D01*
X5063200Y-11275800D02*
X5103200Y-11275800D01*
X5103200Y-11355800D02*
G75*
G03*
X5103200Y-11275800I0J40000D01*
G01*
X5063200Y-11275800D02*
G75*
G03*
X5063200Y-11355800I0J-40000D01*
G01*
X5133200Y-11565800D02*
G75*
G03*
X5133200Y-11565800I-50000J0D01*
G01*
X5063200Y-11605800D02*
X5103200Y-11605800D01*
X5063200Y-11525800D02*
X5103200Y-11525800D01*
X5103200Y-11605800D02*
G75*
G03*
X5103200Y-11525800I0J40000D01*
G01*
X5063200Y-11525800D02*
G75*
G03*
X5063200Y-11605800I0J-40000D01*
G01*
X5133200Y-11815800D02*
G75*
G03*
X5133200Y-11815800I-50000J0D01*
G01*
X5063200Y-11855800D02*
X5103200Y-11855800D01*
X5063200Y-11775800D02*
X5103200Y-11775800D01*
X5103200Y-11855800D02*
G75*
G03*
X5103200Y-11775800I0J40000D01*
G01*
X5063200Y-11775800D02*
G75*
G03*
X5063200Y-11855800I0J-40000D01*
G01*
X5283200Y-8870800D02*
X5283200Y-9010800D01*
X5213200Y-8940800D02*
X5353200Y-8940800D01*
X5283200Y-9120800D02*
X5283200Y-9260800D01*
X5213200Y-9190800D02*
X5353200Y-9190800D01*
X5283200Y-9370800D02*
X5283200Y-9510800D01*
X5213200Y-9440800D02*
X5353200Y-9440800D01*
X5283200Y-9620800D02*
X5283200Y-9760800D01*
X5213200Y-9690800D02*
X5353200Y-9690800D01*
X5283200Y-9870800D02*
X5283200Y-10010800D01*
X5213200Y-9940800D02*
X5353200Y-9940800D01*
X5283200Y-10120800D02*
X5283200Y-10260800D01*
X5213200Y-10190800D02*
X5353200Y-10190800D01*
X5283200Y-10370800D02*
X5283200Y-10510800D01*
X5213200Y-10440800D02*
X5353200Y-10440800D01*
X5283200Y-10620800D02*
X5283200Y-10760800D01*
X5213200Y-10690800D02*
X5353200Y-10690800D01*
X5283200Y-10870800D02*
X5283200Y-11010800D01*
X5213200Y-10940800D02*
X5353200Y-10940800D01*
X5283200Y-11120800D02*
X5283200Y-11260800D01*
X5213200Y-11190800D02*
X5353200Y-11190800D01*
X5283200Y-11370800D02*
X5283200Y-11510800D01*
X5213200Y-11440800D02*
X5353200Y-11440800D01*
X5283200Y-11620800D02*
X5283200Y-11760800D01*
X5213200Y-11690800D02*
X5353200Y-11690800D01*
X5283200Y-11870800D02*
X5283200Y-12010800D01*
X5213200Y-11940800D02*
X5353200Y-11940800D01*
D12*
X5262328Y-12507814D02*
X5262328Y-12207814D01*
X5333757Y-12207814D01*
X5376614Y-12222100D01*
X5405186Y-12250671D01*
X5419471Y-12279243D01*
X5433757Y-12336386D01*
X5433757Y-12379243D01*
X5419471Y-12436386D01*
X5405186Y-12464957D01*
X5376614Y-12493529D01*
X5333757Y-12507814D01*
X5262328Y-12507814D01*
X5562328Y-12507814D02*
X5562328Y-12307814D01*
X5562328Y-12364957D02*
X5576614Y-12336386D01*
X5590900Y-12322100D01*
X5619471Y-12307814D01*
X5648043Y-12307814D01*
X5748043Y-12507814D02*
X5748043Y-12307814D01*
X5748043Y-12207814D02*
X5733757Y-12222100D01*
X5748043Y-12236386D01*
X5762328Y-12222100D01*
X5748043Y-12207814D01*
X5748043Y-12236386D01*
X5933757Y-12507814D02*
X5905186Y-12493529D01*
X5890900Y-12464957D01*
X5890900Y-12207814D01*
X6090900Y-12507814D02*
X6062328Y-12493529D01*
X6048043Y-12464957D01*
X6048043Y-12207814D01*
X6433757Y-12507814D02*
X6433757Y-12207814D01*
X6533757Y-12422100D01*
X6633757Y-12207814D01*
X6633757Y-12507814D01*
X6905186Y-12507814D02*
X6905186Y-12350671D01*
X6890900Y-12322100D01*
X6862328Y-12307814D01*
X6805186Y-12307814D01*
X6776614Y-12322100D01*
X6905186Y-12493529D02*
X6876614Y-12507814D01*
X6805186Y-12507814D01*
X6776614Y-12493529D01*
X6762328Y-12464957D01*
X6762328Y-12436386D01*
X6776614Y-12407814D01*
X6805186Y-12393529D01*
X6876614Y-12393529D01*
X6905186Y-12379243D01*
X7048043Y-12307814D02*
X7048043Y-12607814D01*
X7048043Y-12322100D02*
X7076614Y-12307814D01*
X7133757Y-12307814D01*
X7162328Y-12322100D01*
X7176614Y-12336386D01*
X7190900Y-12364957D01*
X7190900Y-12450671D01*
X7176614Y-12479243D01*
X7162328Y-12493529D01*
X7133757Y-12507814D01*
X7076614Y-12507814D01*
X7048043Y-12493529D01*
X7319471Y-12479243D02*
X7333757Y-12493529D01*
X7319471Y-12507814D01*
X7305186Y-12493529D01*
X7319471Y-12479243D01*
X7319471Y-12507814D01*
X7319471Y-12322100D02*
X7333757Y-12336386D01*
X7319471Y-12350671D01*
X7305186Y-12336386D01*
X7319471Y-12322100D01*
X7319471Y-12350671D01*
X4935900Y-12982100D02*
X4975900Y-13022100D01*
X4975900Y-12982100D02*
X4935900Y-13022100D01*
X5319471Y-12837814D02*
X5348043Y-12837814D01*
X5376614Y-12852100D01*
X5390900Y-12866386D01*
X5405186Y-12894957D01*
X5419471Y-12952100D01*
X5419471Y-13023529D01*
X5405186Y-13080671D01*
X5390900Y-13109243D01*
X5376614Y-13123529D01*
X5348043Y-13137814D01*
X5319471Y-13137814D01*
X5290900Y-13123529D01*
X5276614Y-13109243D01*
X5262328Y-13080671D01*
X5248043Y-13023529D01*
X5248043Y-12952100D01*
X5262328Y-12894957D01*
X5276614Y-12866386D01*
X5290900Y-12852100D01*
X5319471Y-12837814D01*
X5548043Y-13109243D02*
X5562328Y-13123529D01*
X5548043Y-13137814D01*
X5533757Y-13123529D01*
X5548043Y-13109243D01*
X5548043Y-13137814D01*
X5819471Y-12937814D02*
X5819471Y-13137814D01*
X5748043Y-12823529D02*
X5676614Y-13037814D01*
X5862328Y-13037814D01*
X6033757Y-12837814D02*
X6062328Y-12837814D01*
X6090900Y-12852100D01*
X6105186Y-12866386D01*
X6119471Y-12894957D01*
X6133757Y-12952100D01*
X6133757Y-13023529D01*
X6119471Y-13080671D01*
X6105186Y-13109243D01*
X6090900Y-13123529D01*
X6062328Y-13137814D01*
X6033757Y-13137814D01*
X6005186Y-13123529D01*
X5990900Y-13109243D01*
X5976614Y-13080671D01*
X5962328Y-13023529D01*
X5962328Y-12952100D01*
X5976614Y-12894957D01*
X5990900Y-12866386D01*
X6005186Y-12852100D01*
X6033757Y-12837814D01*
X6262328Y-13137814D02*
X6262328Y-12937814D01*
X6262328Y-12966386D02*
X6276614Y-12952100D01*
X6305186Y-12937814D01*
X6348043Y-12937814D01*
X6376614Y-12952100D01*
X6390900Y-12980671D01*
X6390900Y-13137814D01*
X6390900Y-12980671D02*
X6405186Y-12952100D01*
X6433757Y-12937814D01*
X6476614Y-12937814D01*
X6505186Y-12952100D01*
X6519471Y-12980671D01*
X6519471Y-13137814D01*
X6662328Y-13137814D02*
X6662328Y-12937814D01*
X6662328Y-12966386D02*
X6676614Y-12952100D01*
X6705186Y-12937814D01*
X6748043Y-12937814D01*
X6776614Y-12952100D01*
X6790900Y-12980671D01*
X6790900Y-13137814D01*
X6790900Y-12980671D02*
X6805186Y-12952100D01*
X6833757Y-12937814D01*
X6876614Y-12937814D01*
X6905186Y-12952100D01*
X6919471Y-12980671D01*
X6919471Y-13137814D01*
X7505186Y-12823529D02*
X7248043Y-13209243D01*
X7890900Y-12837814D02*
X7919471Y-12837814D01*
X7948043Y-12852100D01*
X7962328Y-12866386D01*
X7976614Y-12894957D01*
X7990900Y-12952100D01*
X7990900Y-13023529D01*
X7976614Y-13080671D01*
X7962328Y-13109243D01*
X7948043Y-13123529D01*
X7919471Y-13137814D01*
X7890900Y-13137814D01*
X7862328Y-13123529D01*
X7848043Y-13109243D01*
X7833757Y-13080671D01*
X7819471Y-13023529D01*
X7819471Y-12952100D01*
X7833757Y-12894957D01*
X7848043Y-12866386D01*
X7862328Y-12852100D01*
X7890900Y-12837814D01*
X8119471Y-13109243D02*
X8133757Y-13123529D01*
X8119471Y-13137814D01*
X8105186Y-13123529D01*
X8119471Y-13109243D01*
X8119471Y-13137814D01*
X8319471Y-12837814D02*
X8348043Y-12837814D01*
X8376614Y-12852100D01*
X8390900Y-12866386D01*
X8405186Y-12894957D01*
X8419471Y-12952100D01*
X8419471Y-13023529D01*
X8405186Y-13080671D01*
X8390900Y-13109243D01*
X8376614Y-13123529D01*
X8348043Y-13137814D01*
X8319471Y-13137814D01*
X8290900Y-13123529D01*
X8276614Y-13109243D01*
X8262328Y-13080671D01*
X8248043Y-13023529D01*
X8248043Y-12952100D01*
X8262328Y-12894957D01*
X8276614Y-12866386D01*
X8290900Y-12852100D01*
X8319471Y-12837814D01*
X8705186Y-13137814D02*
X8533757Y-13137814D01*
X8619471Y-13137814D02*
X8619471Y-12837814D01*
X8590900Y-12880671D01*
X8562328Y-12909243D01*
X8533757Y-12923529D01*
X8962328Y-12837814D02*
X8905186Y-12837814D01*
X8876614Y-12852100D01*
X8862328Y-12866386D01*
X8833757Y-12909243D01*
X8819471Y-12966386D01*
X8819471Y-13080671D01*
X8833757Y-13109243D01*
X8848043Y-13123529D01*
X8876614Y-13137814D01*
X8933757Y-13137814D01*
X8962328Y-13123529D01*
X8976614Y-13109243D01*
X8990900Y-13080671D01*
X8990900Y-13009243D01*
X8976614Y-12980671D01*
X8962328Y-12966386D01*
X8933757Y-12952100D01*
X8876614Y-12952100D01*
X8848043Y-12966386D01*
X8833757Y-12980671D01*
X8819471Y-13009243D01*
X9105186Y-12837814D02*
X9105186Y-12894957D01*
X9219471Y-12837814D02*
X9219471Y-12894957D01*
X9662328Y-13252100D02*
X9648043Y-13237814D01*
X9619471Y-13194957D01*
X9605186Y-13166386D01*
X9590900Y-13123529D01*
X9576614Y-13052100D01*
X9576614Y-12994957D01*
X9590900Y-12923529D01*
X9605186Y-12880671D01*
X9619471Y-12852100D01*
X9648043Y-12809243D01*
X9662328Y-12794957D01*
X9748043Y-12837814D02*
X9933757Y-12837814D01*
X9833757Y-12952100D01*
X9876614Y-12952100D01*
X9905186Y-12966386D01*
X9919471Y-12980671D01*
X9933757Y-13009243D01*
X9933757Y-13080671D01*
X9919471Y-13109243D01*
X9905186Y-13123529D01*
X9876614Y-13137814D01*
X9790900Y-13137814D01*
X9762328Y-13123529D01*
X9748043Y-13109243D01*
X10105186Y-12966386D02*
X10076614Y-12952100D01*
X10062328Y-12937814D01*
X10048043Y-12909243D01*
X10048043Y-12894957D01*
X10062328Y-12866386D01*
X10076614Y-12852100D01*
X10105186Y-12837814D01*
X10162328Y-12837814D01*
X10190900Y-12852100D01*
X10205186Y-12866386D01*
X10219471Y-12894957D01*
X10219471Y-12909243D01*
X10205186Y-12937814D01*
X10190900Y-12952100D01*
X10162328Y-12966386D01*
X10105186Y-12966386D01*
X10076614Y-12980671D01*
X10062328Y-12994957D01*
X10048043Y-13023529D01*
X10048043Y-13080671D01*
X10062328Y-13109243D01*
X10076614Y-13123529D01*
X10105186Y-13137814D01*
X10162328Y-13137814D01*
X10190900Y-13123529D01*
X10205186Y-13109243D01*
X10219471Y-13080671D01*
X10219471Y-13023529D01*
X10205186Y-12994957D01*
X10190900Y-12980671D01*
X10162328Y-12966386D01*
X10576614Y-13137814D02*
X10576614Y-12837814D01*
X10705186Y-13137814D02*
X10705186Y-12980671D01*
X10690900Y-12952100D01*
X10662328Y-12937814D01*
X10619471Y-12937814D01*
X10590900Y-12952100D01*
X10576614Y-12966386D01*
X10890900Y-13137814D02*
X10862328Y-13123529D01*
X10848043Y-13109243D01*
X10833757Y-13080671D01*
X10833757Y-12994957D01*
X10848043Y-12966386D01*
X10862328Y-12952100D01*
X10890900Y-12937814D01*
X10933757Y-12937814D01*
X10962328Y-12952100D01*
X10976614Y-12966386D01*
X10990900Y-12994957D01*
X10990900Y-13080671D01*
X10976614Y-13109243D01*
X10962328Y-13123529D01*
X10933757Y-13137814D01*
X10890900Y-13137814D01*
X11162328Y-13137814D02*
X11133757Y-13123529D01*
X11119471Y-13094957D01*
X11119471Y-12837814D01*
X11390900Y-13123529D02*
X11362328Y-13137814D01*
X11305186Y-13137814D01*
X11276614Y-13123529D01*
X11262328Y-13094957D01*
X11262328Y-12980671D01*
X11276614Y-12952100D01*
X11305186Y-12937814D01*
X11362328Y-12937814D01*
X11390900Y-12952100D01*
X11405186Y-12980671D01*
X11405186Y-13009243D01*
X11262328Y-13037814D01*
X11519471Y-13123529D02*
X11548043Y-13137814D01*
X11605186Y-13137814D01*
X11633757Y-13123529D01*
X11648043Y-13094957D01*
X11648043Y-13080671D01*
X11633757Y-13052100D01*
X11605186Y-13037814D01*
X11562328Y-13037814D01*
X11533757Y-13023529D01*
X11519471Y-12994957D01*
X11519471Y-12980671D01*
X11533757Y-12952100D01*
X11562328Y-12937814D01*
X11605186Y-12937814D01*
X11633757Y-12952100D01*
X11748043Y-13252100D02*
X11762328Y-13237814D01*
X11790900Y-13194957D01*
X11805186Y-13166386D01*
X11819471Y-13123529D01*
X11833757Y-13052100D01*
X11833757Y-12994957D01*
X11819471Y-12923529D01*
X11805186Y-12880671D01*
X11790900Y-12852100D01*
X11762328Y-12809243D01*
X11748043Y-12794957D01*
X4975900Y-13398100D02*
G75*
G03*
X4975900Y-13398100I-50000J0D01*
G01*
X5419471Y-13533814D02*
X5248043Y-13533814D01*
X5333757Y-13533814D02*
X5333757Y-13233814D01*
X5305186Y-13276671D01*
X5276614Y-13305243D01*
X5248043Y-13319529D01*
X5548043Y-13505243D02*
X5562328Y-13519529D01*
X5548043Y-13533814D01*
X5533757Y-13519529D01*
X5548043Y-13505243D01*
X5548043Y-13533814D01*
X5748043Y-13233814D02*
X5776614Y-13233814D01*
X5805186Y-13248100D01*
X5819471Y-13262386D01*
X5833757Y-13290957D01*
X5848043Y-13348100D01*
X5848043Y-13419529D01*
X5833757Y-13476671D01*
X5819471Y-13505243D01*
X5805186Y-13519529D01*
X5776614Y-13533814D01*
X5748043Y-13533814D01*
X5719471Y-13519529D01*
X5705186Y-13505243D01*
X5690900Y-13476671D01*
X5676614Y-13419529D01*
X5676614Y-13348100D01*
X5690900Y-13290957D01*
X5705186Y-13262386D01*
X5719471Y-13248100D01*
X5748043Y-13233814D01*
X6033757Y-13233814D02*
X6062328Y-13233814D01*
X6090900Y-13248100D01*
X6105186Y-13262386D01*
X6119471Y-13290957D01*
X6133757Y-13348100D01*
X6133757Y-13419529D01*
X6119471Y-13476671D01*
X6105186Y-13505243D01*
X6090900Y-13519529D01*
X6062328Y-13533814D01*
X6033757Y-13533814D01*
X6005186Y-13519529D01*
X5990900Y-13505243D01*
X5976614Y-13476671D01*
X5962328Y-13419529D01*
X5962328Y-13348100D01*
X5976614Y-13290957D01*
X5990900Y-13262386D01*
X6005186Y-13248100D01*
X6033757Y-13233814D01*
X6262328Y-13533814D02*
X6262328Y-13333814D01*
X6262328Y-13362386D02*
X6276614Y-13348100D01*
X6305186Y-13333814D01*
X6348043Y-13333814D01*
X6376614Y-13348100D01*
X6390900Y-13376671D01*
X6390900Y-13533814D01*
X6390900Y-13376671D02*
X6405186Y-13348100D01*
X6433757Y-13333814D01*
X6476614Y-13333814D01*
X6505186Y-13348100D01*
X6519471Y-13376671D01*
X6519471Y-13533814D01*
X6662328Y-13533814D02*
X6662328Y-13333814D01*
X6662328Y-13362386D02*
X6676614Y-13348100D01*
X6705186Y-13333814D01*
X6748043Y-13333814D01*
X6776614Y-13348100D01*
X6790900Y-13376671D01*
X6790900Y-13533814D01*
X6790900Y-13376671D02*
X6805186Y-13348100D01*
X6833757Y-13333814D01*
X6876614Y-13333814D01*
X6905186Y-13348100D01*
X6919471Y-13376671D01*
X6919471Y-13533814D01*
X7505186Y-13219529D02*
X7248043Y-13605243D01*
X7890900Y-13233814D02*
X7919471Y-13233814D01*
X7948043Y-13248100D01*
X7962328Y-13262386D01*
X7976614Y-13290957D01*
X7990900Y-13348100D01*
X7990900Y-13419529D01*
X7976614Y-13476671D01*
X7962328Y-13505243D01*
X7948043Y-13519529D01*
X7919471Y-13533814D01*
X7890900Y-13533814D01*
X7862328Y-13519529D01*
X7848043Y-13505243D01*
X7833757Y-13476671D01*
X7819471Y-13419529D01*
X7819471Y-13348100D01*
X7833757Y-13290957D01*
X7848043Y-13262386D01*
X7862328Y-13248100D01*
X7890900Y-13233814D01*
X8119471Y-13505243D02*
X8133757Y-13519529D01*
X8119471Y-13533814D01*
X8105186Y-13519529D01*
X8119471Y-13505243D01*
X8119471Y-13533814D01*
X8319471Y-13233814D02*
X8348043Y-13233814D01*
X8376614Y-13248100D01*
X8390900Y-13262386D01*
X8405186Y-13290957D01*
X8419471Y-13348100D01*
X8419471Y-13419529D01*
X8405186Y-13476671D01*
X8390900Y-13505243D01*
X8376614Y-13519529D01*
X8348043Y-13533814D01*
X8319471Y-13533814D01*
X8290900Y-13519529D01*
X8276614Y-13505243D01*
X8262328Y-13476671D01*
X8248043Y-13419529D01*
X8248043Y-13348100D01*
X8262328Y-13290957D01*
X8276614Y-13262386D01*
X8290900Y-13248100D01*
X8319471Y-13233814D01*
X8519471Y-13233814D02*
X8705186Y-13233814D01*
X8605186Y-13348100D01*
X8648043Y-13348100D01*
X8676614Y-13362386D01*
X8690900Y-13376671D01*
X8705186Y-13405243D01*
X8705186Y-13476671D01*
X8690900Y-13505243D01*
X8676614Y-13519529D01*
X8648043Y-13533814D01*
X8562328Y-13533814D01*
X8533757Y-13519529D01*
X8519471Y-13505243D01*
X8848043Y-13533814D02*
X8905186Y-13533814D01*
X8933757Y-13519529D01*
X8948043Y-13505243D01*
X8976614Y-13462386D01*
X8990900Y-13405243D01*
X8990900Y-13290957D01*
X8976614Y-13262386D01*
X8962328Y-13248100D01*
X8933757Y-13233814D01*
X8876614Y-13233814D01*
X8848043Y-13248100D01*
X8833757Y-13262386D01*
X8819471Y-13290957D01*
X8819471Y-13362386D01*
X8833757Y-13390957D01*
X8848043Y-13405243D01*
X8876614Y-13419529D01*
X8933757Y-13419529D01*
X8962328Y-13405243D01*
X8976614Y-13390957D01*
X8990900Y-13362386D01*
X9105186Y-13233814D02*
X9105186Y-13290957D01*
X9219471Y-13233814D02*
X9219471Y-13290957D01*
X9662328Y-13648100D02*
X9648043Y-13633814D01*
X9619471Y-13590957D01*
X9605186Y-13562386D01*
X9590900Y-13519529D01*
X9576614Y-13448100D01*
X9576614Y-13390957D01*
X9590900Y-13319529D01*
X9605186Y-13276671D01*
X9619471Y-13248100D01*
X9648043Y-13205243D01*
X9662328Y-13190957D01*
X9833757Y-13233814D02*
X9862328Y-13233814D01*
X9890900Y-13248100D01*
X9905186Y-13262386D01*
X9919471Y-13290957D01*
X9933757Y-13348100D01*
X9933757Y-13419529D01*
X9919471Y-13476671D01*
X9905186Y-13505243D01*
X9890900Y-13519529D01*
X9862328Y-13533814D01*
X9833757Y-13533814D01*
X9805186Y-13519529D01*
X9790900Y-13505243D01*
X9776614Y-13476671D01*
X9762328Y-13419529D01*
X9762328Y-13348100D01*
X9776614Y-13290957D01*
X9790900Y-13262386D01*
X9805186Y-13248100D01*
X9833757Y-13233814D01*
X10290900Y-13533814D02*
X10290900Y-13233814D01*
X10419471Y-13533814D02*
X10419471Y-13376671D01*
X10405186Y-13348100D01*
X10376614Y-13333814D01*
X10333757Y-13333814D01*
X10305186Y-13348100D01*
X10290900Y-13362386D01*
X10605186Y-13533814D02*
X10576614Y-13519529D01*
X10562328Y-13505243D01*
X10548043Y-13476671D01*
X10548043Y-13390957D01*
X10562328Y-13362386D01*
X10576614Y-13348100D01*
X10605186Y-13333814D01*
X10648043Y-13333814D01*
X10676614Y-13348100D01*
X10690900Y-13362386D01*
X10705186Y-13390957D01*
X10705186Y-13476671D01*
X10690900Y-13505243D01*
X10676614Y-13519529D01*
X10648043Y-13533814D01*
X10605186Y-13533814D01*
X10876614Y-13533814D02*
X10848043Y-13519529D01*
X10833757Y-13490957D01*
X10833757Y-13233814D01*
X11105186Y-13519529D02*
X11076614Y-13533814D01*
X11019471Y-13533814D01*
X10990900Y-13519529D01*
X10976614Y-13490957D01*
X10976614Y-13376671D01*
X10990900Y-13348100D01*
X11019471Y-13333814D01*
X11076614Y-13333814D01*
X11105186Y-13348100D01*
X11119471Y-13376671D01*
X11119471Y-13405243D01*
X10976614Y-13433814D01*
X11233757Y-13519529D02*
X11262328Y-13533814D01*
X11319471Y-13533814D01*
X11348043Y-13519529D01*
X11362328Y-13490957D01*
X11362328Y-13476671D01*
X11348043Y-13448100D01*
X11319471Y-13433814D01*
X11276614Y-13433814D01*
X11248043Y-13419529D01*
X11233757Y-13390957D01*
X11233757Y-13376671D01*
X11248043Y-13348100D01*
X11276614Y-13333814D01*
X11319471Y-13333814D01*
X11348043Y-13348100D01*
X11719471Y-13419529D02*
X11948043Y-13419529D01*
X11833757Y-13533814D02*
X11833757Y-13305243D01*
X12476614Y-13533814D02*
X12305186Y-13533814D01*
X12390900Y-13533814D02*
X12390900Y-13233814D01*
X12362328Y-13276671D01*
X12333757Y-13305243D01*
X12305186Y-13319529D01*
X12590900Y-13262386D02*
X12605186Y-13248100D01*
X12633757Y-13233814D01*
X12705186Y-13233814D01*
X12733757Y-13248100D01*
X12748043Y-13262386D01*
X12762328Y-13290957D01*
X12762328Y-13319529D01*
X12748043Y-13362386D01*
X12576614Y-13533814D01*
X12762328Y-13533814D01*
X13105186Y-13519529D02*
X13133757Y-13533814D01*
X13190900Y-13533814D01*
X13219471Y-13519529D01*
X13233757Y-13490957D01*
X13233757Y-13476671D01*
X13219471Y-13448100D01*
X13190900Y-13433814D01*
X13148043Y-13433814D01*
X13119471Y-13419529D01*
X13105186Y-13390957D01*
X13105186Y-13376671D01*
X13119471Y-13348100D01*
X13148043Y-13333814D01*
X13190900Y-13333814D01*
X13219471Y-13348100D01*
X13405186Y-13533814D02*
X13376614Y-13519529D01*
X13362328Y-13490957D01*
X13362328Y-13233814D01*
X13562328Y-13533814D02*
X13533757Y-13519529D01*
X13519471Y-13505243D01*
X13505186Y-13476671D01*
X13505186Y-13390957D01*
X13519471Y-13362386D01*
X13533757Y-13348100D01*
X13562328Y-13333814D01*
X13605186Y-13333814D01*
X13633757Y-13348100D01*
X13648043Y-13362386D01*
X13662328Y-13390957D01*
X13662328Y-13476671D01*
X13648043Y-13505243D01*
X13633757Y-13519529D01*
X13605186Y-13533814D01*
X13562328Y-13533814D01*
X13748043Y-13333814D02*
X13862328Y-13333814D01*
X13790900Y-13233814D02*
X13790900Y-13490957D01*
X13805186Y-13519529D01*
X13833757Y-13533814D01*
X13862328Y-13533814D01*
X13948043Y-13519529D02*
X13976614Y-13533814D01*
X14033757Y-13533814D01*
X14062328Y-13519529D01*
X14076614Y-13490957D01*
X14076614Y-13476671D01*
X14062328Y-13448100D01*
X14033757Y-13433814D01*
X13990900Y-13433814D01*
X13962328Y-13419529D01*
X13948043Y-13390957D01*
X13948043Y-13376671D01*
X13962328Y-13348100D01*
X13990900Y-13333814D01*
X14033757Y-13333814D01*
X14062328Y-13348100D01*
X14176614Y-13648100D02*
X14190900Y-13633814D01*
X14219471Y-13590957D01*
X14233757Y-13562386D01*
X14248043Y-13519529D01*
X14262328Y-13448100D01*
X14262328Y-13390957D01*
X14248043Y-13319529D01*
X14233757Y-13276671D01*
X14219471Y-13248100D01*
X14190900Y-13205243D01*
X14176614Y-13190957D01*
X4905900Y-13724100D02*
X4905900Y-13864100D01*
X4835900Y-13794100D02*
X4975900Y-13794100D01*
X5419471Y-13929814D02*
X5248043Y-13929814D01*
X5333757Y-13929814D02*
X5333757Y-13629814D01*
X5305186Y-13672671D01*
X5276614Y-13701243D01*
X5248043Y-13715529D01*
X5548043Y-13901243D02*
X5562328Y-13915529D01*
X5548043Y-13929814D01*
X5533757Y-13915529D01*
X5548043Y-13901243D01*
X5548043Y-13929814D01*
X5819471Y-13729814D02*
X5819471Y-13929814D01*
X5748043Y-13615529D02*
X5676614Y-13829814D01*
X5862328Y-13829814D01*
X6033757Y-13629814D02*
X6062328Y-13629814D01*
X6090900Y-13644100D01*
X6105186Y-13658386D01*
X6119471Y-13686957D01*
X6133757Y-13744100D01*
X6133757Y-13815529D01*
X6119471Y-13872671D01*
X6105186Y-13901243D01*
X6090900Y-13915529D01*
X6062328Y-13929814D01*
X6033757Y-13929814D01*
X6005186Y-13915529D01*
X5990900Y-13901243D01*
X5976614Y-13872671D01*
X5962328Y-13815529D01*
X5962328Y-13744100D01*
X5976614Y-13686957D01*
X5990900Y-13658386D01*
X6005186Y-13644100D01*
X6033757Y-13629814D01*
X6262328Y-13929814D02*
X6262328Y-13729814D01*
X6262328Y-13758386D02*
X6276614Y-13744100D01*
X6305186Y-13729814D01*
X6348043Y-13729814D01*
X6376614Y-13744100D01*
X6390900Y-13772671D01*
X6390900Y-13929814D01*
X6390900Y-13772671D02*
X6405186Y-13744100D01*
X6433757Y-13729814D01*
X6476614Y-13729814D01*
X6505186Y-13744100D01*
X6519471Y-13772671D01*
X6519471Y-13929814D01*
X6662328Y-13929814D02*
X6662328Y-13729814D01*
X6662328Y-13758386D02*
X6676614Y-13744100D01*
X6705186Y-13729814D01*
X6748043Y-13729814D01*
X6776614Y-13744100D01*
X6790900Y-13772671D01*
X6790900Y-13929814D01*
X6790900Y-13772671D02*
X6805186Y-13744100D01*
X6833757Y-13729814D01*
X6876614Y-13729814D01*
X6905186Y-13744100D01*
X6919471Y-13772671D01*
X6919471Y-13929814D01*
X7505186Y-13615529D02*
X7248043Y-14001243D01*
X7890900Y-13629814D02*
X7919471Y-13629814D01*
X7948043Y-13644100D01*
X7962328Y-13658386D01*
X7976614Y-13686957D01*
X7990900Y-13744100D01*
X7990900Y-13815529D01*
X7976614Y-13872671D01*
X7962328Y-13901243D01*
X7948043Y-13915529D01*
X7919471Y-13929814D01*
X7890900Y-13929814D01*
X7862328Y-13915529D01*
X7848043Y-13901243D01*
X7833757Y-13872671D01*
X7819471Y-13815529D01*
X7819471Y-13744100D01*
X7833757Y-13686957D01*
X7848043Y-13658386D01*
X7862328Y-13644100D01*
X7890900Y-13629814D01*
X8119471Y-13901243D02*
X8133757Y-13915529D01*
X8119471Y-13929814D01*
X8105186Y-13915529D01*
X8119471Y-13901243D01*
X8119471Y-13929814D01*
X8319471Y-13629814D02*
X8348043Y-13629814D01*
X8376614Y-13644100D01*
X8390900Y-13658386D01*
X8405186Y-13686957D01*
X8419471Y-13744100D01*
X8419471Y-13815529D01*
X8405186Y-13872671D01*
X8390900Y-13901243D01*
X8376614Y-13915529D01*
X8348043Y-13929814D01*
X8319471Y-13929814D01*
X8290900Y-13915529D01*
X8276614Y-13901243D01*
X8262328Y-13872671D01*
X8248043Y-13815529D01*
X8248043Y-13744100D01*
X8262328Y-13686957D01*
X8276614Y-13658386D01*
X8290900Y-13644100D01*
X8319471Y-13629814D01*
X8690900Y-13629814D02*
X8548043Y-13629814D01*
X8533757Y-13772671D01*
X8548043Y-13758386D01*
X8576614Y-13744100D01*
X8648043Y-13744100D01*
X8676614Y-13758386D01*
X8690900Y-13772671D01*
X8705186Y-13801243D01*
X8705186Y-13872671D01*
X8690900Y-13901243D01*
X8676614Y-13915529D01*
X8648043Y-13929814D01*
X8576614Y-13929814D01*
X8548043Y-13915529D01*
X8533757Y-13901243D01*
X8976614Y-13629814D02*
X8833757Y-13629814D01*
X8819471Y-13772671D01*
X8833757Y-13758386D01*
X8862328Y-13744100D01*
X8933757Y-13744100D01*
X8962328Y-13758386D01*
X8976614Y-13772671D01*
X8990900Y-13801243D01*
X8990900Y-13872671D01*
X8976614Y-13901243D01*
X8962328Y-13915529D01*
X8933757Y-13929814D01*
X8862328Y-13929814D01*
X8833757Y-13915529D01*
X8819471Y-13901243D01*
X9105186Y-13629814D02*
X9105186Y-13686957D01*
X9219471Y-13629814D02*
X9219471Y-13686957D01*
X9662328Y-14044100D02*
X9648043Y-14029814D01*
X9619471Y-13986957D01*
X9605186Y-13958386D01*
X9590900Y-13915529D01*
X9576614Y-13844100D01*
X9576614Y-13786957D01*
X9590900Y-13715529D01*
X9605186Y-13672671D01*
X9619471Y-13644100D01*
X9648043Y-13601243D01*
X9662328Y-13586957D01*
X9933757Y-13929814D02*
X9762328Y-13929814D01*
X9848043Y-13929814D02*
X9848043Y-13629814D01*
X9819471Y-13672671D01*
X9790900Y-13701243D01*
X9762328Y-13715529D01*
X10033757Y-13629814D02*
X10219471Y-13629814D01*
X10119471Y-13744100D01*
X10162328Y-13744100D01*
X10190900Y-13758386D01*
X10205186Y-13772671D01*
X10219471Y-13801243D01*
X10219471Y-13872671D01*
X10205186Y-13901243D01*
X10190900Y-13915529D01*
X10162328Y-13929814D01*
X10076614Y-13929814D01*
X10048043Y-13915529D01*
X10033757Y-13901243D01*
X10576614Y-13929814D02*
X10576614Y-13629814D01*
X10705186Y-13929814D02*
X10705186Y-13772671D01*
X10690900Y-13744100D01*
X10662328Y-13729814D01*
X10619471Y-13729814D01*
X10590900Y-13744100D01*
X10576614Y-13758386D01*
X10890900Y-13929814D02*
X10862328Y-13915529D01*
X10848043Y-13901243D01*
X10833757Y-13872671D01*
X10833757Y-13786957D01*
X10848043Y-13758386D01*
X10862328Y-13744100D01*
X10890900Y-13729814D01*
X10933757Y-13729814D01*
X10962328Y-13744100D01*
X10976614Y-13758386D01*
X10990900Y-13786957D01*
X10990900Y-13872671D01*
X10976614Y-13901243D01*
X10962328Y-13915529D01*
X10933757Y-13929814D01*
X10890900Y-13929814D01*
X11162328Y-13929814D02*
X11133757Y-13915529D01*
X11119471Y-13886957D01*
X11119471Y-13629814D01*
X11390900Y-13915529D02*
X11362328Y-13929814D01*
X11305186Y-13929814D01*
X11276614Y-13915529D01*
X11262328Y-13886957D01*
X11262328Y-13772671D01*
X11276614Y-13744100D01*
X11305186Y-13729814D01*
X11362328Y-13729814D01*
X11390900Y-13744100D01*
X11405186Y-13772671D01*
X11405186Y-13801243D01*
X11262328Y-13829814D01*
X11519471Y-13915529D02*
X11548043Y-13929814D01*
X11605186Y-13929814D01*
X11633757Y-13915529D01*
X11648043Y-13886957D01*
X11648043Y-13872671D01*
X11633757Y-13844100D01*
X11605186Y-13829814D01*
X11562328Y-13829814D01*
X11533757Y-13815529D01*
X11519471Y-13786957D01*
X11519471Y-13772671D01*
X11533757Y-13744100D01*
X11562328Y-13729814D01*
X11605186Y-13729814D01*
X11633757Y-13744100D01*
X11748043Y-14044100D02*
X11762328Y-14029814D01*
X11790900Y-13986957D01*
X11805186Y-13958386D01*
X11819471Y-13915529D01*
X11833757Y-13844100D01*
X11833757Y-13786957D01*
X11819471Y-13715529D01*
X11805186Y-13672671D01*
X11790900Y-13644100D01*
X11762328Y-13601243D01*
X11748043Y-13586957D01*
M02*
