M48
; DRILL file {KiCad (5.1.9)-1} date 05/28/21 12:30:47
; FORMAT={-:-/ absolute / inch / decimal}
; #@! TF.CreationDate,2021-05-28T12:30:47-05:00
; #@! TF.GenerationSoftware,Kicad,Pcbnew,(5.1.9)-1
; #@! TF.FileFunction,Plated,1,2,PTH
FMAT,2
INCH
T1C0.0157
T2C0.0394
T3C0.0551
%
G90
G05
T1
X2.2383Y-4.5137
X2.4363Y-4.5137
X2.6393Y-4.5137
X2.8527Y-4.5142
X3.0358Y-4.5137
X3.2575Y-4.512
X3.463Y-4.515
X3.7023Y-4.5137
X3.9013Y-4.5118
X4.0915Y-4.5135
X4.3053Y-4.5137
X4.5305Y-4.5135
X4.717Y-4.513
X4.9087Y-4.5142
X5.081Y-4.5155
X5.259Y-4.5175
X5.461Y-4.512
X5.6152Y-4.5112
X5.808Y-4.512
X6.0012Y-4.5112
X6.2185Y-4.5135
X6.3957Y-4.5133
X6.6067Y-4.5118
X6.7832Y-4.5122
X6.934Y-4.5135
X7.129Y-4.5135
X7.3Y-4.5135
X7.485Y-4.5135
X7.6575Y-4.5135
X7.8175Y-4.5135
X7.975Y-4.5135
X8.1295Y-4.5135
X8.2705Y-4.5135
X8.4215Y-4.5135
X8.584Y-4.5135
X8.7375Y-4.5135
X8.904Y-4.5135
X9.0678Y-4.5137
T3
X2.08Y-3.52
X2.08Y-3.6184
X2.08Y-3.7169
X2.08Y-3.8153
X2.08Y-3.9137
X2.08Y-4.0121
X2.08Y-4.1106
X2.08Y-4.209
X2.08Y-4.3074
X2.08Y-4.4058
X2.08Y-4.5043
X2.08Y-4.6027
X2.08Y-4.7011
T2
G00X1.9934Y-3.5692
M15
G01X2.0091Y-3.5692
M16
G05
G00X1.9934Y-3.6676
M15
G01X2.0091Y-3.6676
M16
G05
G00X1.9934Y-3.7661
M15
G01X2.0091Y-3.7661
M16
G05
G00X1.9934Y-3.8645
M15
G01X2.0091Y-3.8645
M16
G05
G00X1.9934Y-3.9629
M15
G01X2.0091Y-3.9629
M16
G05
G00X1.9934Y-4.0613
M15
G01X2.0091Y-4.0613
M16
G05
G00X1.9934Y-4.1598
M15
G01X2.0091Y-4.1598
M16
G05
G00X1.9934Y-4.2582
M15
G01X2.0091Y-4.2582
M16
G05
G00X1.9934Y-4.3566
M15
G01X2.0091Y-4.3566
M16
G05
G00X1.9934Y-4.455
M15
G01X2.0091Y-4.455
M16
G05
G00X1.9934Y-4.5535
M15
G01X2.0091Y-4.5535
M16
G05
G00X1.9934Y-4.6519
M15
G01X2.0091Y-4.6519
M16
G05
T0
M30
