%TF.GenerationSoftware,KiCad,Pcbnew,(5.1.9)-1*%
%TF.CreationDate,2021-05-28T12:30:45-05:00*%
%TF.ProjectId,MCD QSB,4d434420-5153-4422-9e6b-696361645f70,rev?*%
%TF.SameCoordinates,Original*%
%TF.FileFunction,Soldermask,Bot*%
%TF.FilePolarity,Negative*%
%FSLAX46Y46*%
G04 Gerber Fmt 4.6, Leading zero omitted, Abs format (unit mm)*
G04 Created by KiCad (PCBNEW (5.1.9)-1) date 2021-05-28 12:30:45*
%MOMM*%
%LPD*%
G01*
G04 APERTURE LIST*
%ADD10R,1.700000X1.400000*%
G04 APERTURE END LIST*
D10*
%TO.C,J1*%
X52832000Y-89408000D03*
G36*
G01*
X49982000Y-91233000D02*
X49982000Y-90083000D01*
G75*
G02*
X50407000Y-89658000I425000J0D01*
G01*
X51257000Y-89658000D01*
G75*
G02*
X51682000Y-90083000I0J-425000D01*
G01*
X51682000Y-91233000D01*
G75*
G02*
X51257000Y-91658000I-425000J0D01*
G01*
X50407000Y-91658000D01*
G75*
G02*
X49982000Y-91233000I0J425000D01*
G01*
G37*
X52832000Y-91908000D03*
G36*
G01*
X49982000Y-93733000D02*
X49982000Y-92583000D01*
G75*
G02*
X50407000Y-92158000I425000J0D01*
G01*
X51257000Y-92158000D01*
G75*
G02*
X51682000Y-92583000I0J-425000D01*
G01*
X51682000Y-93733000D01*
G75*
G02*
X51257000Y-94158000I-425000J0D01*
G01*
X50407000Y-94158000D01*
G75*
G02*
X49982000Y-93733000I0J425000D01*
G01*
G37*
X52832000Y-94408000D03*
G36*
G01*
X49982000Y-96233000D02*
X49982000Y-95083000D01*
G75*
G02*
X50407000Y-94658000I425000J0D01*
G01*
X51257000Y-94658000D01*
G75*
G02*
X51682000Y-95083000I0J-425000D01*
G01*
X51682000Y-96233000D01*
G75*
G02*
X51257000Y-96658000I-425000J0D01*
G01*
X50407000Y-96658000D01*
G75*
G02*
X49982000Y-96233000I0J425000D01*
G01*
G37*
X52832000Y-96908000D03*
G36*
G01*
X49982000Y-98733000D02*
X49982000Y-97583000D01*
G75*
G02*
X50407000Y-97158000I425000J0D01*
G01*
X51257000Y-97158000D01*
G75*
G02*
X51682000Y-97583000I0J-425000D01*
G01*
X51682000Y-98733000D01*
G75*
G02*
X51257000Y-99158000I-425000J0D01*
G01*
X50407000Y-99158000D01*
G75*
G02*
X49982000Y-98733000I0J425000D01*
G01*
G37*
X52832000Y-99408000D03*
G36*
G01*
X49982000Y-101233000D02*
X49982000Y-100083000D01*
G75*
G02*
X50407000Y-99658000I425000J0D01*
G01*
X51257000Y-99658000D01*
G75*
G02*
X51682000Y-100083000I0J-425000D01*
G01*
X51682000Y-101233000D01*
G75*
G02*
X51257000Y-101658000I-425000J0D01*
G01*
X50407000Y-101658000D01*
G75*
G02*
X49982000Y-101233000I0J425000D01*
G01*
G37*
X52832000Y-101908000D03*
G36*
G01*
X49982000Y-103733000D02*
X49982000Y-102583000D01*
G75*
G02*
X50407000Y-102158000I425000J0D01*
G01*
X51257000Y-102158000D01*
G75*
G02*
X51682000Y-102583000I0J-425000D01*
G01*
X51682000Y-103733000D01*
G75*
G02*
X51257000Y-104158000I-425000J0D01*
G01*
X50407000Y-104158000D01*
G75*
G02*
X49982000Y-103733000I0J425000D01*
G01*
G37*
X52832000Y-104408000D03*
G36*
G01*
X49982000Y-106233000D02*
X49982000Y-105083000D01*
G75*
G02*
X50407000Y-104658000I425000J0D01*
G01*
X51257000Y-104658000D01*
G75*
G02*
X51682000Y-105083000I0J-425000D01*
G01*
X51682000Y-106233000D01*
G75*
G02*
X51257000Y-106658000I-425000J0D01*
G01*
X50407000Y-106658000D01*
G75*
G02*
X49982000Y-106233000I0J425000D01*
G01*
G37*
X52832000Y-106908000D03*
G36*
G01*
X49982000Y-108733000D02*
X49982000Y-107583000D01*
G75*
G02*
X50407000Y-107158000I425000J0D01*
G01*
X51257000Y-107158000D01*
G75*
G02*
X51682000Y-107583000I0J-425000D01*
G01*
X51682000Y-108733000D01*
G75*
G02*
X51257000Y-109158000I-425000J0D01*
G01*
X50407000Y-109158000D01*
G75*
G02*
X49982000Y-108733000I0J425000D01*
G01*
G37*
X52832000Y-109408000D03*
G36*
G01*
X49982000Y-111233000D02*
X49982000Y-110083000D01*
G75*
G02*
X50407000Y-109658000I425000J0D01*
G01*
X51257000Y-109658000D01*
G75*
G02*
X51682000Y-110083000I0J-425000D01*
G01*
X51682000Y-111233000D01*
G75*
G02*
X51257000Y-111658000I-425000J0D01*
G01*
X50407000Y-111658000D01*
G75*
G02*
X49982000Y-111233000I0J425000D01*
G01*
G37*
X52832000Y-111908000D03*
G36*
G01*
X49982000Y-113733000D02*
X49982000Y-112583000D01*
G75*
G02*
X50407000Y-112158000I425000J0D01*
G01*
X51257000Y-112158000D01*
G75*
G02*
X51682000Y-112583000I0J-425000D01*
G01*
X51682000Y-113733000D01*
G75*
G02*
X51257000Y-114158000I-425000J0D01*
G01*
X50407000Y-114158000D01*
G75*
G02*
X49982000Y-113733000I0J425000D01*
G01*
G37*
X52832000Y-114408000D03*
G36*
G01*
X49982000Y-116233000D02*
X49982000Y-115083000D01*
G75*
G02*
X50407000Y-114658000I425000J0D01*
G01*
X51257000Y-114658000D01*
G75*
G02*
X51682000Y-115083000I0J-425000D01*
G01*
X51682000Y-116233000D01*
G75*
G02*
X51257000Y-116658000I-425000J0D01*
G01*
X50407000Y-116658000D01*
G75*
G02*
X49982000Y-116233000I0J425000D01*
G01*
G37*
X52832000Y-116908000D03*
G36*
G01*
X49982000Y-118733000D02*
X49982000Y-117583000D01*
G75*
G02*
X50407000Y-117158000I425000J0D01*
G01*
X51257000Y-117158000D01*
G75*
G02*
X51682000Y-117583000I0J-425000D01*
G01*
X51682000Y-118733000D01*
G75*
G02*
X51257000Y-119158000I-425000J0D01*
G01*
X50407000Y-119158000D01*
G75*
G02*
X49982000Y-118733000I0J425000D01*
G01*
G37*
X52832000Y-119408000D03*
%TD*%
M02*
