%TF.GenerationSoftware,KiCad,Pcbnew,(5.1.9)-1*%
%TF.CreationDate,2021-05-28T12:30:45-05:00*%
%TF.ProjectId,MCD QSB,4d434420-5153-4422-9e6b-696361645f70,rev?*%
%TF.SameCoordinates,Original*%
%TF.FileFunction,Copper,L2,Bot*%
%TF.FilePolarity,Positive*%
%FSLAX46Y46*%
G04 Gerber Fmt 4.6, Leading zero omitted, Abs format (unit mm)*
G04 Created by KiCad (PCBNEW (5.1.9)-1) date 2021-05-28 12:30:45*
%MOMM*%
%LPD*%
G01*
G04 APERTURE LIST*
%TA.AperFunction,ComponentPad*%
%ADD10R,1.700000X1.400000*%
%TD*%
%TA.AperFunction,ViaPad*%
%ADD11C,0.800000*%
%TD*%
%TA.AperFunction,Conductor*%
%ADD12C,0.750000*%
%TD*%
%TA.AperFunction,Conductor*%
%ADD13C,1.000000*%
%TD*%
G04 APERTURE END LIST*
D10*
%TO.P,J1,1*%
%TO.N,/CDCK*%
X52832000Y-89408000D03*
%TO.P,J1,2*%
%TO.N,/D-M*%
%TA.AperFunction,ComponentPad*%
G36*
G01*
X49982000Y-91233000D02*
X49982000Y-90083000D01*
G75*
G02*
X50407000Y-89658000I425000J0D01*
G01*
X51257000Y-89658000D01*
G75*
G02*
X51682000Y-90083000I0J-425000D01*
G01*
X51682000Y-91233000D01*
G75*
G02*
X51257000Y-91658000I-425000J0D01*
G01*
X50407000Y-91658000D01*
G75*
G02*
X49982000Y-91233000I0J425000D01*
G01*
G37*
%TD.AperFunction*%
%TO.P,J1,3*%
%TO.N,/IRQ*%
X52832000Y-91908000D03*
%TO.P,J1,4*%
%TO.N,/ERES*%
%TA.AperFunction,ComponentPad*%
G36*
G01*
X49982000Y-93733000D02*
X49982000Y-92583000D01*
G75*
G02*
X50407000Y-92158000I425000J0D01*
G01*
X51257000Y-92158000D01*
G75*
G02*
X51682000Y-92583000I0J-425000D01*
G01*
X51682000Y-93733000D01*
G75*
G02*
X51257000Y-94158000I-425000J0D01*
G01*
X50407000Y-94158000D01*
G75*
G02*
X49982000Y-93733000I0J425000D01*
G01*
G37*
%TD.AperFunction*%
%TO.P,J1,5*%
%TO.N,/HDCK*%
X52832000Y-94408000D03*
%TO.P,J1,6*%
%TO.N,/DB0*%
%TA.AperFunction,ComponentPad*%
G36*
G01*
X49982000Y-96233000D02*
X49982000Y-95083000D01*
G75*
G02*
X50407000Y-94658000I425000J0D01*
G01*
X51257000Y-94658000D01*
G75*
G02*
X51682000Y-95083000I0J-425000D01*
G01*
X51682000Y-96233000D01*
G75*
G02*
X51257000Y-96658000I-425000J0D01*
G01*
X50407000Y-96658000D01*
G75*
G02*
X49982000Y-96233000I0J425000D01*
G01*
G37*
%TD.AperFunction*%
%TO.P,J1,7*%
%TO.N,/DB1*%
X52832000Y-96908000D03*
%TO.P,J1,8*%
%TO.N,/DB2*%
%TA.AperFunction,ComponentPad*%
G36*
G01*
X49982000Y-98733000D02*
X49982000Y-97583000D01*
G75*
G02*
X50407000Y-97158000I425000J0D01*
G01*
X51257000Y-97158000D01*
G75*
G02*
X51682000Y-97583000I0J-425000D01*
G01*
X51682000Y-98733000D01*
G75*
G02*
X51257000Y-99158000I-425000J0D01*
G01*
X50407000Y-99158000D01*
G75*
G02*
X49982000Y-98733000I0J425000D01*
G01*
G37*
%TD.AperFunction*%
%TO.P,J1,9*%
%TO.N,/DB3*%
X52832000Y-99408000D03*
%TO.P,J1,10*%
%TO.N,/C2PO*%
%TA.AperFunction,ComponentPad*%
G36*
G01*
X49982000Y-101233000D02*
X49982000Y-100083000D01*
G75*
G02*
X50407000Y-99658000I425000J0D01*
G01*
X51257000Y-99658000D01*
G75*
G02*
X51682000Y-100083000I0J-425000D01*
G01*
X51682000Y-101233000D01*
G75*
G02*
X51257000Y-101658000I-425000J0D01*
G01*
X50407000Y-101658000D01*
G75*
G02*
X49982000Y-101233000I0J425000D01*
G01*
G37*
%TD.AperFunction*%
%TO.P,J1,11*%
%TO.N,/BCLK*%
X52832000Y-101908000D03*
%TO.P,J1,12*%
%TO.N,/SDATA*%
%TA.AperFunction,ComponentPad*%
G36*
G01*
X49982000Y-103733000D02*
X49982000Y-102583000D01*
G75*
G02*
X50407000Y-102158000I425000J0D01*
G01*
X51257000Y-102158000D01*
G75*
G02*
X51682000Y-102583000I0J-425000D01*
G01*
X51682000Y-103733000D01*
G75*
G02*
X51257000Y-104158000I-425000J0D01*
G01*
X50407000Y-104158000D01*
G75*
G02*
X49982000Y-103733000I0J425000D01*
G01*
G37*
%TD.AperFunction*%
%TO.P,J1,13*%
%TO.N,/LRCK*%
X52832000Y-104408000D03*
%TO.P,J1,14*%
%TO.N,/DFCK*%
%TA.AperFunction,ComponentPad*%
G36*
G01*
X49982000Y-106233000D02*
X49982000Y-105083000D01*
G75*
G02*
X50407000Y-104658000I425000J0D01*
G01*
X51257000Y-104658000D01*
G75*
G02*
X51682000Y-105083000I0J-425000D01*
G01*
X51682000Y-106233000D01*
G75*
G02*
X51257000Y-106658000I-425000J0D01*
G01*
X50407000Y-106658000D01*
G75*
G02*
X49982000Y-106233000I0J425000D01*
G01*
G37*
%TD.AperFunction*%
%TO.P,J1,15*%
%TO.N,Net-(J1-Pad15)*%
X52832000Y-106908000D03*
%TO.P,J1,16*%
%TO.N,Net-(J1-Pad16)*%
%TA.AperFunction,ComponentPad*%
G36*
G01*
X49982000Y-108733000D02*
X49982000Y-107583000D01*
G75*
G02*
X50407000Y-107158000I425000J0D01*
G01*
X51257000Y-107158000D01*
G75*
G02*
X51682000Y-107583000I0J-425000D01*
G01*
X51682000Y-108733000D01*
G75*
G02*
X51257000Y-109158000I-425000J0D01*
G01*
X50407000Y-109158000D01*
G75*
G02*
X49982000Y-108733000I0J425000D01*
G01*
G37*
%TD.AperFunction*%
%TO.P,J1,17*%
%TO.N,/EXCK*%
X52832000Y-109408000D03*
%TO.P,J1,18*%
%TO.N,/SBSO*%
%TA.AperFunction,ComponentPad*%
G36*
G01*
X49982000Y-111233000D02*
X49982000Y-110083000D01*
G75*
G02*
X50407000Y-109658000I425000J0D01*
G01*
X51257000Y-109658000D01*
G75*
G02*
X51682000Y-110083000I0J-425000D01*
G01*
X51682000Y-111233000D01*
G75*
G02*
X51257000Y-111658000I-425000J0D01*
G01*
X50407000Y-111658000D01*
G75*
G02*
X49982000Y-111233000I0J425000D01*
G01*
G37*
%TD.AperFunction*%
%TO.P,J1,19*%
%TO.N,Net-(J1-Pad19)*%
X52832000Y-111908000D03*
%TO.P,J1,20*%
%TO.N,/SCOR*%
%TA.AperFunction,ComponentPad*%
G36*
G01*
X49982000Y-113733000D02*
X49982000Y-112583000D01*
G75*
G02*
X50407000Y-112158000I425000J0D01*
G01*
X51257000Y-112158000D01*
G75*
G02*
X51682000Y-112583000I0J-425000D01*
G01*
X51682000Y-113733000D01*
G75*
G02*
X51257000Y-114158000I-425000J0D01*
G01*
X50407000Y-114158000D01*
G75*
G02*
X49982000Y-113733000I0J425000D01*
G01*
G37*
%TD.AperFunction*%
%TO.P,J1,21*%
%TO.N,/GND*%
X52832000Y-114408000D03*
%TO.P,J1,22*%
%TO.N,/WFCK*%
%TA.AperFunction,ComponentPad*%
G36*
G01*
X49982000Y-116233000D02*
X49982000Y-115083000D01*
G75*
G02*
X50407000Y-114658000I425000J0D01*
G01*
X51257000Y-114658000D01*
G75*
G02*
X51682000Y-115083000I0J-425000D01*
G01*
X51682000Y-116233000D01*
G75*
G02*
X51257000Y-116658000I-425000J0D01*
G01*
X50407000Y-116658000D01*
G75*
G02*
X49982000Y-116233000I0J425000D01*
G01*
G37*
%TD.AperFunction*%
%TO.P,J1,23*%
%TO.N,/VCC*%
X52832000Y-116908000D03*
%TO.P,J1,24*%
%TO.N,Net-(J1-Pad24)*%
%TA.AperFunction,ComponentPad*%
G36*
G01*
X49982000Y-118733000D02*
X49982000Y-117583000D01*
G75*
G02*
X50407000Y-117158000I425000J0D01*
G01*
X51257000Y-117158000D01*
G75*
G02*
X51682000Y-117583000I0J-425000D01*
G01*
X51682000Y-118733000D01*
G75*
G02*
X51257000Y-119158000I-425000J0D01*
G01*
X50407000Y-119158000D01*
G75*
G02*
X49982000Y-118733000I0J425000D01*
G01*
G37*
%TD.AperFunction*%
%TO.P,J1,25*%
%TO.N,Net-(J1-Pad25)*%
X52832000Y-119408000D03*
%TD*%
D11*
%TO.N,/GND*%
X56852800Y-114648000D03*
X61882000Y-114648000D03*
X67038200Y-114648000D03*
X72459850Y-114661950D03*
X77109300Y-114648000D03*
X82740500Y-114604800D03*
X87960200Y-114681000D03*
X94038400Y-114648000D03*
X99091750Y-114598450D03*
X103924100Y-114642900D03*
X109353350Y-114649250D03*
X115074700Y-114642900D03*
X119811800Y-114630200D03*
X124682250Y-114661950D03*
X129057400Y-114693700D03*
X133578600Y-114744500D03*
X138709400Y-114604800D03*
X142627350Y-114585750D03*
X147523200Y-114604800D03*
X152431750Y-114585750D03*
X157949900Y-114642900D03*
X162452050Y-114636550D03*
X167811450Y-114598450D03*
X172294550Y-114611150D03*
X176123600Y-114642900D03*
X181076600Y-114642900D03*
X185420000Y-114642900D03*
X190119000Y-114642900D03*
X194500500Y-114642900D03*
X198564500Y-114642900D03*
X202565000Y-114642900D03*
X206489300Y-114642900D03*
X210070700Y-114642900D03*
X213906100Y-114642900D03*
X218033600Y-114642900D03*
X221932500Y-114642900D03*
X226161600Y-114642900D03*
X230322100Y-114648000D03*
%TD*%
D12*
%TO.N,/GND*%
X56852800Y-119795990D02*
X56857900Y-119795990D01*
D13*
X86877590Y-89588910D02*
X86877590Y-89500010D01*
X56852800Y-119613700D02*
X86877590Y-89588910D01*
D12*
X56852800Y-119795990D02*
X56852800Y-119613700D01*
D13*
X94281690Y-89500010D02*
X92300490Y-89500010D01*
D12*
X62318900Y-119481600D02*
X62318900Y-119795990D01*
D13*
X92300490Y-89500010D02*
X62318900Y-119481600D01*
X86877590Y-89500010D02*
X94281690Y-89500010D01*
X67325810Y-119795990D02*
X66789300Y-119795990D01*
X97132710Y-89989090D02*
X72459850Y-114661950D01*
X97132710Y-89500010D02*
X97132710Y-89989090D01*
X94281690Y-89500010D02*
X97132710Y-89500010D01*
X72459850Y-114661950D02*
X67325810Y-119795990D01*
D12*
X56852800Y-89784510D02*
X57137300Y-89500010D01*
D13*
X82134010Y-89500010D02*
X61731590Y-89500010D01*
X56852800Y-94378800D02*
X56852800Y-89784510D01*
X61731590Y-89500010D02*
X56852800Y-94378800D01*
X66386010Y-89569990D02*
X56852800Y-99103200D01*
X66386010Y-89500010D02*
X66386010Y-89569990D01*
X56852800Y-99103200D02*
X56852800Y-94378800D01*
X57137300Y-89500010D02*
X66386010Y-89500010D01*
X71078790Y-89693010D02*
X56852800Y-103919000D01*
X56852800Y-103919000D02*
X56852800Y-99103200D01*
X66386010Y-89500010D02*
X71078790Y-89500010D01*
X71078790Y-89500010D02*
X71078790Y-89693010D01*
X75231690Y-89792110D02*
X56852800Y-108171000D01*
X75231690Y-89500010D02*
X75231690Y-89792110D01*
X56852800Y-108171000D02*
X56852800Y-103919000D01*
X71078790Y-89500010D02*
X75231690Y-89500010D01*
X79314610Y-89877290D02*
X56852800Y-112339100D01*
X56852800Y-112339100D02*
X56852800Y-108171000D01*
X56852800Y-114648000D02*
X56852800Y-112339100D01*
X75231690Y-89500010D02*
X79314610Y-89500010D01*
X79314610Y-89500010D02*
X79314610Y-89877290D01*
X79314610Y-89500010D02*
X82134010Y-89500010D01*
X57161320Y-115755400D02*
X83416710Y-89500010D01*
X83416710Y-89500010D02*
X86877590Y-89500010D01*
D12*
X56852800Y-115755400D02*
X57161320Y-115755400D01*
D13*
X82134010Y-89500010D02*
X83416710Y-89500010D01*
X56852800Y-114648000D02*
X56852800Y-115755400D01*
X56852800Y-115755400D02*
X56852800Y-119795990D01*
X72148700Y-119646700D02*
X72148700Y-119795990D01*
X101819010Y-89976390D02*
X72148700Y-119646700D01*
X101819010Y-89500010D02*
X101819010Y-89976390D01*
X97132710Y-89500010D02*
X101819010Y-89500010D01*
X106860910Y-90484390D02*
X82740500Y-114604800D01*
X106860910Y-89500010D02*
X106860910Y-90484390D01*
X101819010Y-89500010D02*
X106860910Y-89500010D01*
X77549310Y-119795990D02*
X76860400Y-119795990D01*
X113141190Y-89500010D02*
X87960200Y-114681000D01*
X106860910Y-89500010D02*
X113217390Y-89500010D01*
X82845210Y-119795990D02*
X82473800Y-119795990D01*
X113217390Y-89500010D02*
X113141190Y-89500010D01*
X88826910Y-119795990D02*
X88455500Y-119795990D01*
X118030690Y-90592210D02*
X88826910Y-119795990D01*
X118030690Y-89500010D02*
X118030690Y-90592210D01*
X113217390Y-89500010D02*
X118030690Y-89500010D01*
X123859990Y-89830210D02*
X99091750Y-114598450D01*
X123859990Y-89500010D02*
X123859990Y-89830210D01*
X93894210Y-119795990D02*
X93281500Y-119795990D01*
X118030690Y-89500010D02*
X123859990Y-89500010D01*
X82740500Y-114604800D02*
X77549310Y-119795990D01*
X87960200Y-114681000D02*
X82845210Y-119795990D01*
X99091750Y-114598450D02*
X93894210Y-119795990D01*
X128952690Y-89500010D02*
X98958400Y-119494300D01*
X129124010Y-89500010D02*
X128952690Y-89500010D01*
X123859990Y-89500010D02*
X129124010Y-89500010D01*
X98936110Y-119795990D02*
X98856800Y-119795990D01*
X98958400Y-119773700D02*
X98936110Y-119795990D01*
X98958400Y-119494300D02*
X98958400Y-119773700D01*
X104206610Y-119795990D02*
X104025700Y-119795990D01*
X134197790Y-89804810D02*
X109353350Y-114649250D01*
X134197790Y-89500010D02*
X134197790Y-89804810D01*
X129124010Y-89500010D02*
X134197790Y-89500010D01*
X109743810Y-119795990D02*
X109601000Y-119795990D01*
X138884090Y-90655710D02*
X109743810Y-119795990D01*
X138884090Y-89500010D02*
X138884090Y-90655710D01*
X134197790Y-89500010D02*
X138884090Y-89500010D01*
X144452910Y-89500010D02*
X144452910Y-89989090D01*
X144452910Y-89989090D02*
X119811800Y-114630200D01*
X138884090Y-89500010D02*
X144452910Y-89500010D01*
X114646010Y-119795990D02*
X114604800Y-119795990D01*
X119608600Y-119735600D02*
X119608600Y-119795990D01*
X149596410Y-89747790D02*
X124682250Y-114661950D01*
X149596410Y-89500010D02*
X149596410Y-89747790D01*
X144452910Y-89500010D02*
X149596410Y-89500010D01*
X124091700Y-119659400D02*
X124091700Y-119795990D01*
X154085990Y-89665110D02*
X129057400Y-114693700D01*
X154085990Y-89500010D02*
X154085990Y-89665110D01*
X149596410Y-89500010D02*
X154085990Y-89500010D01*
X128527110Y-119795990D02*
X128079500Y-119795990D01*
X158315090Y-90008010D02*
X133578600Y-114744500D01*
X158315090Y-89500010D02*
X158315090Y-90008010D01*
X154085990Y-89500010D02*
X158315090Y-89500010D01*
X133518210Y-119795990D02*
X132803900Y-119795990D01*
X162887090Y-90427110D02*
X138709400Y-114604800D01*
X162887090Y-89500010D02*
X162887090Y-90427110D01*
X158315090Y-89500010D02*
X162887090Y-89500010D01*
X137417110Y-119795990D02*
X137287000Y-119795990D01*
X167547990Y-89665110D02*
X142627350Y-114585750D01*
X167547990Y-89500010D02*
X167547990Y-89665110D01*
X162887090Y-89500010D02*
X167547990Y-89500010D01*
X142332010Y-119795990D02*
X141693900Y-119795990D01*
X171954890Y-89500010D02*
X171954890Y-90173110D01*
X171954890Y-90173110D02*
X147523200Y-114604800D01*
X167547990Y-89500010D02*
X171954890Y-89500010D01*
X147221510Y-119795990D02*
X147015200Y-119795990D01*
X177517490Y-89500010D02*
X152431750Y-114585750D01*
X177606390Y-89500010D02*
X177517490Y-89500010D01*
X171954890Y-89500010D02*
X177606390Y-89500010D01*
X152720610Y-119795990D02*
X152082500Y-119795990D01*
X181930610Y-90585990D02*
X152720610Y-119795990D01*
X181930610Y-89500010D02*
X181930610Y-90585990D01*
X177606390Y-89500010D02*
X181930610Y-89500010D01*
X186832810Y-90255790D02*
X162452050Y-114636550D01*
X186832810Y-89500010D02*
X186832810Y-90255790D01*
X157292610Y-119795990D02*
X156489400Y-119795990D01*
X181930610Y-89500010D02*
X186832810Y-89500010D01*
X162613910Y-119795990D02*
X162153600Y-119795990D01*
X191652590Y-90757310D02*
X167811450Y-114598450D01*
X191652590Y-89500010D02*
X191652590Y-90757310D01*
X186832810Y-89500010D02*
X191652590Y-89500010D01*
X196649910Y-89500010D02*
X196649910Y-90255790D01*
X167157400Y-119748300D02*
X167157400Y-119795990D01*
X196649910Y-90255790D02*
X172294550Y-114611150D01*
X191652590Y-89500010D02*
X196649910Y-89500010D01*
X196649910Y-89500010D02*
X234480100Y-89500010D01*
X109353350Y-114649250D02*
X104206610Y-119795990D01*
X119811800Y-114630200D02*
X114646010Y-119795990D01*
X124682250Y-114661950D02*
X119608600Y-119735600D01*
X129057400Y-114693700D02*
X124091700Y-119659400D01*
X133578600Y-114744500D02*
X128527110Y-119795990D01*
X138709400Y-114604800D02*
X133518210Y-119795990D01*
X142627350Y-114585750D02*
X137417110Y-119795990D01*
X147523200Y-114604800D02*
X142332010Y-119795990D01*
X152431750Y-114585750D02*
X147221510Y-119795990D01*
X162452050Y-114636550D02*
X157292610Y-119795990D01*
X167811450Y-114598450D02*
X162613910Y-119795990D01*
X172294550Y-114611150D02*
X167157400Y-119748300D01*
X171095510Y-119670990D02*
X171056300Y-119670990D01*
X176123600Y-114642900D02*
X171095510Y-119670990D01*
X201056810Y-89709690D02*
X201056810Y-89625010D01*
X176123600Y-114642900D02*
X201056810Y-89709690D01*
X206094490Y-89625010D02*
X206441610Y-89625010D01*
X181076600Y-114642900D02*
X206094490Y-89625010D01*
X210264310Y-89798590D02*
X210264310Y-89625010D01*
X185420000Y-114642900D02*
X210264310Y-89798590D01*
X215136890Y-89625010D02*
X215668290Y-89625010D01*
X190119000Y-114642900D02*
X215136890Y-89625010D01*
X219490990Y-89652410D02*
X219490990Y-89625010D01*
X194500500Y-114642900D02*
X219490990Y-89652410D01*
X223582390Y-89625010D02*
X224101090Y-89625010D01*
X198564500Y-114642900D02*
X223582390Y-89625010D01*
X227485510Y-89722390D02*
X227485510Y-89625010D01*
X202565000Y-114642900D02*
X227485510Y-89722390D01*
X231507190Y-89625010D02*
X231822690Y-89625010D01*
X206489300Y-114642900D02*
X231507190Y-89625010D01*
X210070700Y-114642900D02*
X234480100Y-90233500D01*
X234480100Y-89500010D02*
X234480100Y-90233500D01*
X234264200Y-94284800D02*
X234480100Y-94284800D01*
X213906100Y-114642900D02*
X234264200Y-94284800D01*
X234480100Y-90233500D02*
X234480100Y-94284800D01*
X218033600Y-114642900D02*
X234480100Y-98196400D01*
X234480100Y-98196400D02*
X234480100Y-97815400D01*
X234480100Y-94284800D02*
X234480100Y-97815400D01*
X221932500Y-114642900D02*
X234480100Y-102095300D01*
X234480100Y-102095300D02*
X234480100Y-101955600D01*
X234480100Y-97815400D02*
X234480100Y-101955600D01*
X234480100Y-106324400D02*
X234480100Y-105918000D01*
X226161600Y-114642900D02*
X234480100Y-106324400D01*
X234480100Y-101955600D02*
X234480100Y-105918000D01*
X230906300Y-114648000D02*
X234480100Y-111074200D01*
X230322100Y-114648000D02*
X230906300Y-114648000D01*
X234480100Y-105918000D02*
X234480100Y-111074200D01*
X176048510Y-119670990D02*
X175399700Y-119670990D01*
X181076600Y-114642900D02*
X176048510Y-119670990D01*
X180555900Y-119507000D02*
X180555900Y-119670990D01*
X185420000Y-114642900D02*
X180555900Y-119507000D01*
X185090910Y-119670990D02*
X184950100Y-119670990D01*
X190119000Y-114642900D02*
X185090910Y-119670990D01*
X189472410Y-119670990D02*
X189090300Y-119670990D01*
X194500500Y-114642900D02*
X189472410Y-119670990D01*
X193536410Y-119670990D02*
X193395600Y-119670990D01*
X198564500Y-114642900D02*
X193536410Y-119670990D01*
X197929500Y-119278400D02*
X197929500Y-119670990D01*
X202565000Y-114642900D02*
X197929500Y-119278400D01*
X201461210Y-119670990D02*
X199453500Y-119670990D01*
X206489300Y-114642900D02*
X201461210Y-119670990D01*
X205042610Y-119670990D02*
X204584300Y-119670990D01*
X210070700Y-114642900D02*
X205042610Y-119670990D01*
X208878010Y-119670990D02*
X208229200Y-119670990D01*
X213906100Y-114642900D02*
X208878010Y-119670990D01*
X213005510Y-119670990D02*
X213004400Y-119670990D01*
X218033600Y-114642900D02*
X213005510Y-119670990D01*
X216904410Y-119670990D02*
X216700100Y-119670990D01*
X221932500Y-114642900D02*
X216904410Y-119670990D01*
X221133510Y-119670990D02*
X220002100Y-119670990D01*
X226161600Y-114642900D02*
X221133510Y-119670990D01*
X225540410Y-119670990D02*
X224891600Y-119670990D01*
X230563400Y-114648000D02*
X225540410Y-119670990D01*
X230906300Y-114648000D02*
X230563400Y-114648000D01*
X229782210Y-119670990D02*
X229730300Y-119670990D01*
X234480100Y-115087400D02*
X234365800Y-115087400D01*
X234365800Y-115087400D02*
X229782210Y-119670990D01*
X234480100Y-111074200D02*
X234480100Y-115087400D01*
X234480100Y-115087400D02*
X234480100Y-119795990D01*
X234480000Y-119900700D02*
X56883300Y-119900700D01*
%TD*%
M02*
